<?xml version="1.0" standalone="no"?>
<!DOCTYPE svg PUBLIC "-//W3C//DTD SVG 20010904//EN"
 "http://www.w3.org/TR/2001/REC-SVG-20010904/DTD/svg10.dtd">
<svg version="1.0" xmlns="http://www.w3.org/2000/svg"
 width="700.000000pt" height="700.000000pt" viewBox="0 0 700.000000 700.000000"
 preserveAspectRatio="xMidYMid meet">
<metadata>
Created by potrace 1.11, written by Peter Selinger 2001-2013
</metadata>
<g transform="translate(0.000000,700.000000) scale(0.100000,-0.100000)"
fill="#000000" stroke="none">
<path d="M3278 6996 c-1 -2 -41 -6 -88 -10 -87 -7 -105 -9 -225 -27 -116 -18
-123 -19 -192 -35 -227 -51 -373 -95 -553 -166 -227 -90 -440 -201 -640 -333
-667 -440 -1151 -1070 -1404 -1827 -31 -94 -79 -267 -91 -329 -3 -13 -11 -58
-20 -99 -14 -72 -18 -93 -30 -171 -36 -228 -41 -696 -10 -913 3 -17 7 -49 9
-71 10 -83 18 -131 26 -165 5 -19 12 -48 14 -65 57 -318 243 -795 421 -1078
30 -49 55 -92 55 -97 0 -4 3 -10 8 -12 4 -2 33 -41 64 -88 156 -234 399 -499
648 -707 81 -67 304 -233 314 -233 3 0 32 -18 65 -40 33 -22 63 -40 67 -40 4
0 15 -6 23 -14 29 -25 304 -161 431 -213 269 -110 577 -194 835 -228 22 -2 56
-7 75 -10 187 -26 697 -27 838 0 16 3 104 15 147 20 209 27 591 141 845 252
449 198 887 515 1195 867 33 38 68 78 78 88 83 88 286 384 379 553 51 93 148
290 148 300 0 2 11 28 24 57 57 127 151 421 182 573 17 81 54 301 59 350 4 33
9 71 11 85 9 46 11 524 4 605 -12 126 -20 202 -25 226 -3 13 -7 41 -10 64 -17
123 -80 378 -131 531 -369 1115 -1276 1975 -2409 2283 -106 29 -282 67 -355
76 -19 3 -46 7 -60 10 -13 2 -52 7 -86 11 -33 3 -74 8 -90 10 -33 5 -540 14
-546 10z m527 -510 c22 -3 60 -8 85 -12 94 -12 119 -16 250 -45 177 -38 157
-33 297 -79 443 -145 850 -395 1178 -725 129 -130 147 -150 278 -315 112 -141
268 -407 355 -606 51 -116 139 -367 157 -449 37 -170 56 -262 60 -297 3 -24 7
-54 10 -68 20 -103 27 -517 12 -675 -11 -114 -43 -302 -74 -430 -25 -107 -99
-338 -128 -402 -8 -17 -15 -34 -15 -37 0 -3 -13 -34 -30 -68 -16 -34 -30 -67
-30 -74 0 -7 -3 -14 -7 -16 -5 -1 -21 -30 -37 -63 -36 -74 -134 -239 -194
-325 -185 -264 -376 -464 -664 -696 -22 -17 -207 -141 -266 -178 -184 -115
-552 -271 -757 -322 -16 -4 -34 -8 -40 -10 -27 -7 -194 -44 -220 -48 -16 -2
-50 -8 -75 -11 -25 -4 -54 -9 -65 -11 -63 -12 -205 -19 -385 -18 -181 0 -374
9 -390 19 -3 2 -30 6 -60 10 -30 4 -77 11 -105 17 -27 5 -61 11 -75 14 -64 12
-262 69 -364 104 -459 158 -907 456 -1227 816 -30 33 -69 77 -88 98 -18 21
-70 88 -115 150 -319 438 -513 949 -563 1491 -15 162 -8 554 12 665 3 14 7 41
9 60 10 79 22 142 52 263 2 9 6 26 9 38 17 81 84 281 121 366 8 17 14 34 14
37 0 15 126 269 176 354 93 159 227 345 337 469 96 108 273 279 361 348 22 17
44 35 50 40 46 42 244 175 351 237 317 181 724 323 1042 363 27 4 59 8 73 11
14 2 61 7 105 10 44 4 82 8 84 10 6 6 446 -3 496 -10z"/>
<path d="M2800 4667 l0 -582 293 -293 292 -292 291 0 291 0 -1 -582 -1 -583
-290 -1 -291 0 0 580 1 581 -293 3 -292 2 0 -875 0 -875 583 0 582 0 293 293
292 292 -2 875 -3 874 -580 1 -580 0 0 290 0 290 582 0 c320 0 579 2 577 5 -2
3 -133 134 -291 293 l-287 287 -583 0 -583 0 0 -583z"/>
</g>
</svg>
