<svg width="24" height="24" viewBox="0 0 24 24" fill="none" xmlns="http://www.w3.org/2000/svg">
<path d="M12.0222 2C6.37581 2 2 6.12682 2 11.7009C2 14.6164 3.19798 17.1359 5.14798 18.8763C5.48468 19.1791 5.41532 19.3545 5.47258 21.2244C5.47709 21.3553 5.51357 21.4832 5.57885 21.5969C5.64413 21.7105 5.73622 21.8064 5.84708 21.8763C5.95795 21.9462 6.08423 21.9879 6.2149 21.9977C6.34558 22.0076 6.47668 21.9853 6.59677 21.9329C8.73024 20.9933 8.75766 20.9191 9.11935 21.0175C15.3004 22.7188 22 18.763 22 11.7009C22 6.12682 17.669 2 12.0222 2ZM18.0399 9.4653L15.0964 14.1256C14.9852 14.3009 14.8391 14.4513 14.6671 14.5674C14.4951 14.6835 14.301 14.7628 14.0969 14.8004C13.8928 14.838 13.6832 14.8331 13.4811 14.7858C13.279 14.7386 13.0889 14.6502 12.9226 14.526L10.5806 12.7731C10.476 12.6946 10.3486 12.6522 10.2177 12.6522C10.0869 12.6522 9.95953 12.6946 9.85484 12.7731L6.69476 15.17C6.27298 15.4898 5.72056 14.9845 6.00484 14.5381L8.94839 9.87782C9.0595 9.70253 9.20563 9.55209 9.37762 9.43594C9.54961 9.31979 9.74374 9.24042 9.94783 9.20283C10.1519 9.16523 10.3616 9.17021 10.5637 9.21746C10.7658 9.26471 10.9559 9.35321 11.1222 9.4774L13.4633 11.2299C13.568 11.3084 13.6953 11.3509 13.8262 11.3509C13.9571 11.3509 14.0844 11.3084 14.1891 11.2299L17.3508 8.83543C17.7718 8.51364 18.3242 9.0185 18.0399 9.4653Z" fill="#111111"/>
</svg>
