<svg width="24" height="24" viewBox="0 0 24 24" fill="none" xmlns="http://www.w3.org/2000/svg">
<path d="M21.1651 13.4479C21.241 12.9688 21.2791 12.4845 21.2791 11.9994C21.2791 6.87462 17.1248 2.72044 11.9997 2.72044C11.5079 2.72044 11.0234 2.76088 10.5516 2.83466C9.69697 2.306 8.68829 2 7.6074 2C4.51048 2 2 4.5102 2 7.60728C2 8.68792 2.30623 9.6957 2.83468 10.5521C2.76158 11.025 2.72134 11.5066 2.72134 11.9997C2.72134 17.1247 6.87561 21.2778 11.9994 21.2778C12.4917 21.2778 12.9761 21.2398 13.4479 21.1653C14.3035 21.6931 15.3113 22 16.3922 22C19.4897 22 22 19.4891 22 16.3921C22.0002 15.3112 21.6942 14.3034 21.1651 13.4479ZM16.4053 16.2196C16.0126 16.7847 15.4362 17.2263 14.6826 17.5438C13.9275 17.862 13.0352 18.0205 12.0048 18.0205C10.7697 18.0205 9.74697 17.8045 8.93985 17.3681C8.36762 17.0556 7.90229 16.6363 7.5445 16.1134C7.18605 15.5903 7.00427 15.0781 7.00427 14.5785C7.00427 14.2839 7.11673 14.0274 7.3354 13.8185C7.5565 13.6081 7.84117 13.5025 8.17718 13.5025C8.45252 13.5025 8.68897 13.5854 8.88141 13.7496C9.07252 13.9139 9.23274 14.1525 9.36386 14.4676C9.52097 14.8327 9.69165 15.1379 9.87319 15.3812C10.0536 15.6216 10.3076 15.8225 10.6365 15.9796C10.9619 16.1372 11.3948 16.2158 11.9366 16.2158C12.6779 16.2158 13.2772 16.0556 13.7357 15.7392C14.1966 15.4201 14.4181 15.0316 14.4181 14.5621C14.4181 14.1879 14.2986 13.8903 14.0539 13.6585C13.807 13.4239 13.4879 13.245 13.0921 13.1203C12.6948 12.9943 12.1612 12.8605 11.4925 12.7197C10.5948 12.5239 9.84387 12.2957 9.23586 12.0339C8.62697 11.7708 8.14208 11.4115 7.78273 10.9575C7.4225 10.499 7.24296 9.92924 7.24296 9.25436C7.24296 8.61082 7.4325 8.03526 7.81207 7.53438C8.1914 7.03216 8.74029 6.64772 9.45586 6.37996C10.169 6.11218 11.0085 5.9784 11.9703 5.9784C12.7395 5.9784 13.4048 6.06728 13.9679 6.2444C14.5297 6.42284 14.9977 6.65818 15.3719 6.9535C15.7441 7.24816 16.0177 7.55904 16.1911 7.88526C16.3642 8.21238 16.4515 8.53192 16.4515 8.8437C16.4515 9.1337 16.3391 9.39658 16.1202 9.62702C15.901 9.85792 15.621 9.97546 15.2939 9.97436C14.999 9.97436 14.7677 9.90636 14.6073 9.76236C14.451 9.62302 14.287 9.40126 14.1095 9.09214C13.8852 8.66082 13.6166 8.32482 13.3039 8.08438C12.9997 7.8486 12.4977 7.72572 11.7992 7.72726C11.153 7.72726 10.6359 7.85926 10.2456 8.11748C9.85297 8.37992 9.66519 8.68438 9.66431 9.04104C9.66497 9.26458 9.72919 9.45302 9.85853 9.61414C9.98986 9.7768 10.1725 9.91768 10.4074 10.0366C10.6423 10.1572 10.8812 10.2506 11.1214 10.3177C11.3643 10.3866 11.7674 10.4861 12.3277 10.6179C13.0303 10.7695 13.6679 10.9386 14.2406 11.123C14.8121 11.3083 15.2999 11.5319 15.703 11.7981C16.1093 12.0637 16.4268 12.4021 16.6535 12.811C16.8815 13.2205 16.9953 13.7208 16.9953 14.3092C16.9962 15.0181 16.7986 15.6554 16.4053 16.2196Z" fill="#111111"/>
</svg>
