<svg width="24" height="24" viewBox="0 0 24 24" fill="none" xmlns="http://www.w3.org/2000/svg">
<circle cx="11.5" cy="12.5" r="7.5" fill="white"/>
<path d="M12 2C6.47625 2 2 6.47625 2 12C2 17.5238 6.47625 22 12 22C17.5238 22 22 17.5238 22 12C22 6.47625 17.5238 2 12 2ZM16.9137 8.855L15.2725 16.585C15.1587 17.1363 14.8275 17.265 14.3662 17.0112L11.8663 15.1637L10.6675 16.3313C10.5275 16.4675 10.4175 16.5813 10.1675 16.5813C9.84375 16.5813 9.8975 16.46 9.78875 16.1512L8.9375 13.355L6.465 12.585C5.93 12.4213 5.92625 12.0538 6.58625 11.7925L16.2188 8.07375C16.6562 7.875 17.0825 8.17875 16.9137 8.855Z" fill="#111111"/>
</svg>
