<?xml version="1.0" standalone="no"?>
<!DOCTYPE svg PUBLIC "-//W3C//DTD SVG 1.1//EN" "http://www.w3.org/Graphics/SVG/1.1/DTD/svg11.dtd" >
<svg xmlns="http://www.w3.org/2000/svg">
<metadata></metadata>
<defs>
<font id="web_serveroffitalic" horiz-adv-x="798" >
<font-face units-per-em="2048" ascent="1536" descent="-512" />
<missing-glyph horiz-adv-x="716" />
<glyph horiz-adv-x="2048" />
<glyph horiz-adv-x="2048" />
<glyph unicode="&#xd;" horiz-adv-x="2048" />
<glyph unicode=" "  horiz-adv-x="716" />
<glyph unicode="&#x09;" horiz-adv-x="716" />
<glyph unicode="&#xa0;" horiz-adv-x="716" />
<glyph unicode="!" horiz-adv-x="286" d="M106 0l31 229h72l-31 -229h-72zM162 397l143 1024h72l-144 -1024h-71z" />
<glyph unicode="&#x22;" horiz-adv-x="471" d="M266 1151l53 369h72l-53 -369h-72zM446 1151l54 369h69l-53 -369h-70z" />
<glyph unicode="#" horiz-adv-x="917" d="M106 4l207 512h-133l10 72h154l100 246h-139l10 71h158l215 531l70 -17l-209 -514h162l215 531l69 -17l-209 -514h136l-11 -71h-155l-101 -246h144l-11 -72h-161l-215 -530l-68 18l207 512h-162l-215 -530zM418 588h164l100 246h-164z" />
<glyph unicode="$" horiz-adv-x="860" d="M115 31l10 73q66 -23 132.5 -36t135.5 -17l88 627q-43 6 -90 19.5t-83 47t-54 92t-6 152.5l20 137q20 150 110.5 225.5t209.5 86.5l26 182h72l-27 -180q115 -6 236 -37l-10 -76q-63 16 -121.5 27.5t-112.5 15.5l-90 -629q43 -4 90 -18t84 -47t55.5 -91.5t6.5 -152.5 l-19 -139q-23 -150 -114 -225.5t-209 -85.5l-25 -181h-72l25 181q-139 6 -268 49zM319 989q-10 -72 3.5 -116t40 -70.5t61.5 -37.5t68 -15l86 618q-88 -10 -155 -67.5t-83 -174.5zM465 53q90 8 157.5 65.5t84.5 174.5l18 139q10 70 -3 115t-41 70.5t-62.5 37t-67.5 15.5z " />
<glyph unicode="%" horiz-adv-x="962" d="M106 10l873 1434l55 -31l-872 -1438zM211 860l57 416q12 84 65.5 124t123.5 40q68 0 110.5 -40t30.5 -124l-57 -416q-12 -88 -66.5 -127t-122.5 -39q-70 0 -111.5 39t-29.5 127zM283 860q-8 -47 16.5 -70.5t62.5 -23.5q39 0 69 23.5t38 70.5l57 416q6 47 -16.5 70.5 t-60.5 23.5q-39 0 -71 -23.5t-38 -70.5zM547 145l59 416q12 84 65.5 125t121.5 41t111.5 -41t31.5 -125l-59 -416q-10 -86 -65.5 -125.5t-123.5 -39.5t-109.5 39.5t-31.5 125.5zM618 145q-6 -47 17.5 -70.5t62.5 -23.5t70 23.5t37 70.5l59 416q6 47 -18.5 70.5t-63.5 23.5 t-68.5 -23.5t-35.5 -70.5z" />
<glyph unicode="&#x26;" horiz-adv-x="1003" d="M154 293l18 139q10 68 31.5 116t52.5 81t66.5 52t72.5 30q-35 10 -65.5 29.5t-51 52t-29.5 81t1 115.5l20 137q12 80 44 139.5t80 98.5t107.5 57.5t125.5 18.5q137 0 266 -49l-10 -78q-143 57 -265 57q-102 0 -181 -57.5t-97 -186.5l-21 -137q-12 -82 9.5 -130 t58.5 -73.5t80 -33t78 -7.5h497l-10 -71h-198l-54 -381q-23 -160 -115 -236.5t-229 -76.5q-68 0 -125 19t-96 57t-56.5 97.5t-4.5 139.5zM223 293q-10 -63 4.5 -109.5t45 -75t75.5 -43t98 -14.5q109 0 176.5 56.5t86.5 185.5l53 381h-227q-35 0 -80 -7.5t-89 -32t-78 -72.5 t-46 -130z" />
<glyph unicode="'" horiz-adv-x="286" d="M266 1151l53 369h72l-53 -369h-72z" />
<glyph unicode="(" horiz-adv-x="450" d="M125 135l162 1151q23 162 111.5 257t228.5 95l-11 -69q-109 0 -174 -77t-84 -206l-161 -1151q-18 -129 25.5 -205.5t152.5 -76.5l-10 -72q-139 0 -201 96t-39 258z" />
<glyph unicode=")" horiz-adv-x="450" d="M14 -219l11 72q109 0 175 76.5t85 205.5l161 1151q18 129 -26.5 206t-153.5 77l10 69q139 0 201 -95t39 -257l-162 -1151q-23 -162 -111.5 -258t-228.5 -96z" />
<glyph unicode="*" horiz-adv-x="688" d="M248 1036l188 121l-157 123l51 59l145 -112l27 194h71l-26 -194l174 112l33 -61l-189 -121l156 -121l-51 -61l-144 110l-26 -192h-72l27 192l-176 -110z" />
<glyph unicode="+" horiz-adv-x="757" d="M190 674v71h230v230h72v-230h227v-71h-227v-228h-72v228h-230z" />
<glyph unicode="," horiz-adv-x="327" d="M53 -258q35 68 57.5 134.5t34.5 123.5h-39l27 190h111l-25 -174q-10 -70 -32.5 -137t-55.5 -137h-78z" />
<glyph unicode="-" horiz-adv-x="757" d="M190 674v71h529v-71h-529z" />
<glyph unicode="." horiz-adv-x="327" d="M106 0l27 190h111l-27 -190h-111z" />
<glyph unicode="/" horiz-adv-x="835" d="M47 10l871 1434l55 -31l-871 -1438z" />
<glyph unicode="0" horiz-adv-x="860" d="M152 293l116 833q12 80 45 139.5t80 98.5t106.5 57.5t125.5 18.5q63 0 118.5 -18.5t92 -57.5t54 -98.5t5.5 -139.5l-117 -833q-12 -80 -45 -139.5t-81 -97.5t-108.5 -57t-123.5 -19q-66 0 -120 19t-91 57t-53.5 97.5t-3.5 139.5zM219 274l594 981q-23 59 -74 87t-123 28 q-102 0 -180 -57.5t-96 -186.5l-117 -833zM229 166q23 -59 76 -87t125 -28q51 0 97 14.5t83 43t61.5 74.5t35.5 110l116 833v23z" />
<glyph unicode="1" horiz-adv-x="368" d="M145 0l191 1362h-139l10 72h211l-201 -1434h-72z" />
<glyph unicode="2" horiz-adv-x="860" d="M111 0l59 432q14 102 55 162.5t93.5 93.5t107.5 43t100 14q33 2 76 10.5t84 33t73 71.5t44 129l20 137q8 63 -3 110.5t-39.5 76t-70.5 43t-94 14.5q-63 0 -133.5 -14.5t-148.5 -42.5l10 78q144 49 281 49q63 0 118.5 -18.5t92 -57.5t54 -98.5t5.5 -139.5l-21 -137 q-14 -102 -54 -163.5t-92 -93.5t-108.5 -43t-99.5 -15q-35 -2 -78 -9.5t-84 -32t-72.5 -71.5t-43.5 -129l-52 -360h555l-8 -72h-626z" />
<glyph unicode="3" horiz-adv-x="860" d="M154 31l10 75q70 -27 136.5 -41t129.5 -14q51 0 97 14.5t83 43t61.5 74.5t35.5 110l41 299q8 63 -5.5 109.5t-44 75t-75.5 43t-99 14.5l11 71q10 0 18 -1t18 -1l271 459h-541l10 72h627l-8 -58l-287 -485q92 -27 143.5 -100.5t32.5 -198.5l-41 -299q-12 -80 -45 -139.5 t-81 -97.5t-108.5 -57t-123.5 -19q-70 0 -135.5 13t-130.5 38z" />
<glyph unicode="4" horiz-adv-x="903" d="M176 477l6 39h-6l8 19l2 12h2l396 874h78l-396 -874h459l68 477h71l-67 -477h118l-10 -70h-119l-65 -477h-72l66 477h-539z" />
<glyph unicode="5" horiz-adv-x="860" d="M154 31l10 75q70 -27 136.5 -41t129.5 -14q51 0 97 14.5t83 43t61.5 74.5t35.5 110l41 299q8 63 -3.5 109.5t-40 75t-70.5 43t-93 14.5q-33 0 -69 -12.5t-67.5 -39t-57 -68.5t-38.5 -100q-4 -10 -5 -19t-3 -20h-72l160 846h526l-10 -71h-454l-111 -566q41 61 95 91 t116 30q63 0 118.5 -19.5t92.5 -57t53 -97t4 -139.5l-41 -299q-12 -80 -45 -139.5t-81 -97.5t-108.5 -57t-123.5 -19q-70 0 -135.5 13t-130.5 38z" />
<glyph unicode="6" horiz-adv-x="860" d="M152 293l116 833q12 80 45 139.5t80 98.5t106.5 57.5t125.5 18.5q135 0 268 -49l-10 -78q-72 29 -137.5 43t-129.5 14q-102 0 -180 -57.5t-96 -186.5l-41 -288q68 29 136.5 48t115.5 19q63 0 118.5 -19.5t92.5 -57t53 -97t4 -139.5l-39 -283q-12 -84 -46 -146.5 t-82 -103.5t-108.5 -60t-123.5 -19q-66 0 -120 19t-91 57t-53.5 97.5t-3.5 139.5zM223 293q-18 -127 43.5 -184.5t163.5 -57.5t180 60.5t99 197.5l39 283q8 63 -3.5 109.5t-40 75t-70.5 43t-93 14.5q-55 0 -118 -11.5t-130 -34.5z" />
<glyph unicode="7" horiz-adv-x="860" d="M223 0l606 1362h-569l10 72h652l-9 -60l-612 -1374h-78z" />
<glyph unicode="8" horiz-adv-x="860" d="M152 293l18 139q16 123 73.5 185.5t125.5 91.5q-31 14 -56.5 36.5t-43 56.5t-23.5 80t2 107l20 137q23 152 120 233t235 81q70 0 125 -20.5t90.5 -60.5t51 -98.5t5.5 -134.5l-21 -137q-16 -123 -72.5 -187.5t-125.5 -92.5q31 -14 56.5 -36t43 -54.5t23.5 -78.5t-2 -108 l-19 -139q-23 -152 -122 -232.5t-238 -80.5q-68 0 -122 20t-90 60t-50.5 98.5t-3.5 134.5zM223 293q-18 -123 43.5 -182.5t163.5 -59.5t180 59.5t97 182.5l18 139q10 74 -5 120t-46 72.5t-72 37t-82 10.5q-43 0 -87 -10.5t-83 -37t-68.5 -72.5t-39.5 -120zM319 989 q-14 -106 41.5 -175t165.5 -69q102 0 181 63.5t96 180.5l20 137q16 123 -44 183.5t-163 60.5q-51 0 -97 -15.5t-83 -45t-62.5 -75.5t-33.5 -108z" />
<glyph unicode="9" horiz-adv-x="860" d="M154 31l10 75q70 -27 136.5 -41t129.5 -14q51 0 97 14.5t83 43t61.5 74.5t35.5 110l38 289q-68 -27 -135 -46.5t-114 -19.5q-66 0 -120 18.5t-91 57.5t-53.5 98.5t-6.5 138.5l41 283q12 84 45 146.5t81 102.5t107.5 59.5t125.5 19.5q63 0 118.5 -18.5t92 -57.5t54 -98.5 t5.5 -139.5l-117 -833q-12 -80 -45 -139.5t-81 -97.5t-108.5 -57t-123.5 -19q-70 0 -135.5 13t-130.5 38zM297 829q-16 -127 45.5 -184t163.5 -57q55 0 117.5 11t130.5 34l69 493q8 63 -3 110.5t-39.5 76t-70.5 43t-94 14.5q-51 0 -97 -14.5t-83 -46t-63.5 -80.5t-34.5 -117 z" />
<glyph unicode=":" horiz-adv-x="327" d="M106 0l27 190h111l-27 -190h-111zM184 555l27 190h111l-27 -190h-111z" />
<glyph unicode=";" horiz-adv-x="327" d="M53 -258q35 68 57.5 134.5t34.5 123.5h-39l27 190h111l-25 -174q-10 -70 -32.5 -137t-55.5 -137h-78zM184 555l27 190h111l-27 -190h-111z" />
<glyph unicode="&#x3c;" horiz-adv-x="636" d="M199 711l428 374l43 -51l-369 -323l279 -324l-58 -51z" />
<glyph unicode="=" horiz-adv-x="757" d="M190 596v72h529v-72h-529zM190 754v71h529v-71h-529z" />
<glyph unicode="&#x3e;" horiz-adv-x="636" d="M154 387l368 324l-278 323l59 51l322 -374l-426 -375z" />
<glyph unicode="?" horiz-adv-x="819" d="M229 0l27 190h72l-27 -190h-72zM272 317l17 115q12 94 48 153.5t77 93.5t79.5 47t59.5 17l-6 -2l33 11q20 6 48.5 16t55.5 34.5t48.5 68.5t31.5 118l20 137q8 63 -4 110.5t-40.5 76t-70.5 43t-94 14.5q-125 0 -280 -57l10 78q142 49 279 49q66 0 120 -18.5t92 -57.5 t54 -98.5t4 -139.5l-20 -137q-12 -96 -46 -154.5t-73 -91t-78 -46t-64 -19.5l-18 -4q-14 -4 -42 -14.5t-58.5 -37t-57 -72.5t-37.5 -118l-16 -115h-72z" />
<glyph unicode="@" d="M121 293l61 438q10 80 43 139.5t81 97.5t107.5 57t125.5 19q63 0 118.5 -19t92 -57t53 -97.5t6.5 -139.5l-55 -383q-8 -55 -46 -82.5t-85 -27.5q-33 0 -58.5 12t-40.5 39q-20 -27 -45.5 -39t-52.5 -12q-63 0 -102 36.5t-29 112.5l35 248q10 78 59 114.5t113 36.5 q47 0 73 -32l3 12h71l-59 -418q-2 -39 43 -39q18 0 32.5 9.5t16.5 29.5l55 383q8 63 -4 109.5t-40.5 75t-70.5 43t-94 14.5q-51 0 -97 -14.5t-83 -43t-61.5 -74.5t-32.5 -110l-61 -438q-18 -127 43 -184.5t163 -57.5q63 0 134 14.5t149 40.5l-10 -75q-74 -25 -143.5 -38 t-139.5 -13q-66 0 -120 19t-91 57t-53 97.5t-4 139.5zM367 387q-6 -41 14 -59.5t55 -18.5q31 0 54.5 16.5t33.5 53.5l37 264q2 35 -17.5 53.5t-49.5 18.5q-35 0 -60.5 -19.5t-32.5 -60.5z" />
<glyph unicode="A" horiz-adv-x="860" d="M45 0l545 1434h72l141 -1434h-78l-33 340h-442l-129 -340h-76zM276 412h408l-80 858z" />
<glyph unicode="B" horiz-adv-x="839" d="M109 0l200 1434h281q70 0 127 -19.5t97 -58.5q40 -38 58 -98q10 -35 10 -78q0 -29 -5 -62l-17 -121q-18 -127 -75.5 -189.5t-127.5 -90.5q31 -14 57.5 -36t44 -55.5t23.5 -80.5q3 -20 2 -43q0 -31 -4 -66l-16 -121q-12 -80 -46 -139t-84 -98t-112.5 -58.5t-132.5 -19.5 h-280zM188 72h209q55 0 104.5 14t88.5 43t65.5 75t36.5 111l17 121q4 30 4 56q-1 44 -13 74q-20 48 -57 72t-81 31t-79 11h-209zM285 754h209q35 2 81 10t90 31.5t77.5 70.5t45.5 131l17 121q3 23 3 45q0 35 -8 65q-14 48 -44.5 76.5t-75.5 43t-100 14.5h-209z" />
<glyph unicode="C" horiz-adv-x="778" d="M150 297l118 840q10 82 44 141t82 98t108.5 58.5t126.5 19.5q133 0 270 -51l-12 -78q-143 57 -269 57q-102 0 -182 -58t-96 -187l-119 -840q-4 -28 -5 -53q0 -33 8 -59q14 -46 42.5 -75.5t71.5 -44t94 -14.5q123 0 285 58l-10 -78q-74 -25 -144.5 -38t-140.5 -13 q-66 0 -121 19t-92 58t-55 99q-10 34 -10 75q0 31 6 66z" />
<glyph unicode="D" horiz-adv-x="839" d="M109 0l200 1434h297q66 0 120 -19.5t92 -58.5q38 -38 54 -98q10 -34 10 -76q0 -30 -5 -64l-113 -803q-12 -80 -45 -139t-81 -98t-107.5 -58.5t-124.5 -19.5h-297zM188 72h226q102 0 181 57t97 186l113 803q3 25 3 47q0 35 -8 63q-12 48 -40.5 76.5t-70.5 43t-93 14.5 h-225z" />
<glyph unicode="E" horiz-adv-x="716" d="M109 0l200 1434h553l-10 -72h-481l-86 -608h422l-11 -74h-422l-86 -608h482l-8 -72h-553z" />
<glyph unicode="F" horiz-adv-x="716" d="M109 0l200 1434h553l-10 -72h-481l-86 -608h422l-11 -74h-422l-94 -680h-71z" />
<glyph unicode="G" horiz-adv-x="860" d="M150 297l118 840q10 82 44 141t82 98t108.5 58.5t126.5 19.5q68 0 135 -10t137 -29l-12 -76q-72 20 -139.5 31.5t-131.5 11.5q-102 0 -182 -58t-96 -187l-119 -840q-4 -28 -4 -53q0 -33 7 -59q14 -46 42.5 -75.5t71.5 -44t94 -14.5q59 0 121.5 8.5t126.5 24.5l84 596 h-260l10 74h332l-101 -723q-84 -25 -163.5 -38t-159.5 -13q-66 0 -121 19t-92 58t-55 99q-10 34 -10 75q0 31 6 66z" />
<glyph unicode="H" horiz-adv-x="839" d="M109 0l200 1434h72l-96 -680h469l96 680h72l-201 -1434h-72l94 680h-469l-94 -680h-71z" />
<glyph unicode="I" horiz-adv-x="286" d="M106 0l201 1434h72l-201 -1434h-72z" />
<glyph unicode="J" horiz-adv-x="757" d="M53 31l10 78q140 -58 267 -58q104 0 183 58.5t97 187.5l160 1137h72l-160 -1137q-12 -82 -45 -141.5t-82 -98.5t-109.5 -58t-126.5 -19q-135 0 -266 51z" />
<glyph unicode="K" horiz-adv-x="839" d="M109 0l200 1434h74l-96 -680h221l412 680h77l-434 -717l236 -717h-78l-223 680h-222l-94 -680h-73z" />
<glyph unicode="L" horiz-adv-x="716" d="M109 0l200 1434h72l-193 -1362h482l-8 -72h-553z" />
<glyph unicode="M" horiz-adv-x="1095" d="M106 0l199 1427v7h78l225 -977l494 977h80l-6 -13l-199 -1421h-72l172 1227l-450 -887h-68l-209 895l-172 -1235h-72z" />
<glyph unicode="N" horiz-adv-x="839" d="M109 0l200 1434h68l303 -1213l170 1213h72l-201 -1434h-66l-305 1212l-170 -1212h-71z" />
<glyph unicode="O" horiz-adv-x="860" d="M150 297l118 840q10 82 44 141t82 98t108.5 58.5t126.5 19.5t120 -19.5t92 -58.5t54 -98q10 -36 10 -81q0 -28 -4 -60l-119 -840q-12 -82 -44.5 -141.5t-81 -98.5t-109 -58t-125.5 -19q-66 0 -121 19t-92 58t-55 99q-10 34 -10 75q0 31 6 66zM221 297q-4 -28 -5 -53 q0 -33 8 -59q14 -46 42.5 -75.5t71.5 -44t94 -14.5q102 0 181 58.5t98 187.5l118 840q3 26 3 50q0 91 -49 137q-62 58 -165 58q-102 0 -182 -58t-96 -187z" />
<glyph unicode="P" d="M109 0l200 1434h281q70 0 127 -19.5t97 -58.5q40 -38 58 -98q10 -35 10 -78q0 -29 -5 -62l-39 -280q-14 -104 -57.5 -167t-98.5 -96.5t-114.5 -44t-106.5 -10.5h-209l-72 -520h-71zM262 592h209q35 0 81 7t90 32.5t78 74t46 132.5l39 280q3 23 3 45q0 35 -8 65 q-14 48 -44.5 76.5t-75.5 43t-100 14.5h-209z" />
<glyph unicode="Q" horiz-adv-x="860" d="M150 297l118 840q10 82 44 141t82 98t108.5 58.5t126.5 19.5t120 -19.5t92 -58.5t54 -98q10 -36 10 -81q0 -28 -4 -60l-119 -840q-14 -98 -58 -164.5t-110 -103.5l76 -230h-78l-65 201q-29 -10 -60.5 -15t-64.5 -5q-66 0 -121 19t-92 58t-55 99q-10 34 -10 75q0 31 6 66z M221 297q-4 -28 -4 -53q0 -33 7 -59q14 -46 42.5 -75.5t71.5 -44t94 -14.5q45 0 92 12l-80 250h78l70 -219q47 29 77.5 79t41.5 124l118 840q3 26 3 50q0 91 -49 137q-62 58 -165 58q-102 0 -182 -58t-96 -187z" />
<glyph unicode="R" horiz-adv-x="839" d="M109 0l200 1434h281q70 0 127 -19.5t97 -58.5q40 -38 58 -98q11 -36 12 -80q0 -28 -5 -60l-39 -280q-10 -72 -35 -124t-58.5 -87t-73.5 -56.5t-79 -33.5l176 -537h-78l-172 522q-16 -2 -30.5 -2h-28.5h-207l-72 -520h-73zM264 592h207q35 0 81 7t90 32.5t78 74t46 132.5 l39 280q3 23 3 45q0 35 -8 65q-14 48 -44.5 76.5t-75.5 43t-100 14.5h-207z" />
<glyph unicode="S" horiz-adv-x="860" d="M113 31l10 75q76 -27 153.5 -41t155.5 -14q102 0 181 58.5t98 187.5l18 139q5 31 5 57q0 43 -12 72q-20 47 -53.5 72t-75.5 32t-75 11q-43 4 -96 15.5t-97 44t-68 92.5q-15 37 -15 91q0 34 6 74l20 140q10 82 44 141t82 98t108.5 58.5t126.5 19.5q68 0 135 -10t137 -29 l-12 -76q-72 20 -139.5 31.5t-131.5 11.5q-102 0 -182 -58t-96 -187l-21 -140q-4 -30 -5 -56q0 -44 14 -73q20 -47 55 -71.5t76 -32.5t73 -10q43 -4 96.5 -15.5t96.5 -44t67 -92.5q15 -38 15 -94q0 -33 -6 -72l-19 -139q-12 -82 -44.5 -141.5t-81 -98.5t-109 -58t-125.5 -19 q-80 0 -158 13t-151 38z" />
<glyph unicode="T" horiz-adv-x="737" d="M240 1362l10 72h633l-11 -72h-280l-191 -1362h-71l190 1362h-280z" />
<glyph unicode="U" horiz-adv-x="839" d="M150 297l159 1137h72l-160 -1137q-4 -31 -4 -57q0 -86 44 -130q58 -58 161 -59q100 0 175 58.5t93 187.5l160 1137h72l-160 -1137q-12 -82 -43 -141.5t-77 -98.5t-105.5 -58t-124.5 -19q-66 0 -120 19t-89 58t-51 99q-8 32 -8 71q0 33 6 70z" />
<glyph unicode="V" horiz-adv-x="860" d="M246 1434h76l127 -1268l477 1268h78l-543 -1434h-72z" />
<glyph unicode="W" horiz-adv-x="1212" d="M248 1434h76l88 -1254q78 229 155.5 458.5t153.5 457.5h67l56 -916q109 313 218 626.5t218 627.5h78l-502 -1434h-72l-55 909l-305 -909h-72z" />
<glyph unicode="X" horiz-adv-x="860" d="M53 0l434 717l-235 717h78l207 -635l381 635h79l-434 -717l236 -717h-80l-205 633l-383 -633h-78z" />
<glyph unicode="Y" horiz-adv-x="860" d="M244 1434h75l193 -809l416 809h78l-474 -920l-71 -514h-72l72 518z" />
<glyph unicode="Z" horiz-adv-x="860" d="M109 0l6 57l716 1305h-532l10 72h617l-8 -58l-717 -1304h532l-8 -72h-616z" />
<glyph unicode="[" horiz-adv-x="491" d="M80 -199l256 1819h309l-10 -72h-240l-235 -1675h239l-10 -72h-309z" />
<glyph unicode="\" horiz-adv-x="835" d="M244 1413l67 31l465 -1436l-63 -33z" />
<glyph unicode="]" horiz-adv-x="491" d="M39 -199l10 72h238l235 1675h-237l10 72h309l-256 -1819h-309z" />
<glyph unicode="^" horiz-adv-x="970" d="M264 1153l426 375l47 -51l-2 -2l281 -322l-62 -51l-278 321l-367 -321z" />
<glyph unicode="_" horiz-adv-x="757" d="M10 -424h729v-72h-729v72z" />
<glyph unicode="`" horiz-adv-x="606" d="M295 1397l53 59l320 -246l-58 -59z" />
<glyph unicode="a" d="M145 264h2l11 80q10 74 40.5 127t73.5 88t96.5 51.5t112.5 16.5h213l19 133q3 23 3 43q0 29 -6 52q-12 40 -37.5 66.5t-61.5 39t-79 12.5q-47 0 -112.5 -14.5t-143.5 -40.5l13 75q150 51 256 51q55 0 103 -16t82 -52t50 -89q9 -31 8 -69q0 -27 -4 -58l-106 -760h-72l2 29 q-59 -20 -118.5 -34.5t-100.5 -14.5q-59 0 -108.5 16t-83 52t-47.5 89q-9 31 -9 70q0 27 4 57zM217 264q-3 -23 -3 -44q0 -28 6 -51q11 -40 36 -66.5t61.5 -39t81.5 -12.5q96 0 217 35l68 469h-213q-90 0 -158.5 -50t-85.5 -161z" />
<glyph unicode="b" d="M111 0l215 1536h69l-78 -547q59 23 120 39t102 16q59 0 108 -16t83 -52t50 -89q9 -31 8 -69q0 -27 -4 -58l-69 -496q-23 -147 -115 -215.5t-211 -68.5q-41 0 -96 15t-109 38l-4 -33h-69zM190 86q115 -35 209 -35q90 0 159 51.5t85 161.5l70 496q3 23 3 43q0 29 -6 52 q-12 40 -37.5 66.5t-62.5 39t-82 12.5q-100 0 -217 -37z" />
<glyph unicode="c" horiz-adv-x="757" d="M145 264l70 496q20 147 112.5 215.5t211.5 68.5q47 0 109.5 -13t127.5 -38l-12 -75q-68 27 -131.5 41t-104.5 14q-90 0 -157.5 -51.5t-83.5 -161.5l-70 -496q-3 -23 -3 -44q0 -28 6 -51q11 -40 36 -66.5t61.5 -39t81.5 -12.5q41 0 107.5 14.5t144.5 40.5l-10 -75 q-72 -25 -138.5 -38t-113.5 -13q-59 0 -108.5 16t-83 52t-47.5 89q-9 31 -9 70q0 27 4 57z" />
<glyph unicode="d" d="M147 264l70 496q10 74 40 127t73 89t96 52t113 16q53 0 104 -14t102 -35l76 541h72l-215 -1536h-72l2 27q-55 -18 -110.5 -32.5t-108.5 -14.5q-59 0 -107.5 16t-82 52t-47.5 89q-9 31 -9 70q0 27 4 57zM217 264q-3 -23 -3 -44q0 -28 6 -51q11 -40 36 -66.5t61.5 -39 t81.5 -12.5q96 0 217 35l121 850q-111 37 -209 37q-90 0 -157.5 -51.5t-83.5 -161.5z" />
<glyph unicode="e" d="M147 264l70 496q10 74 40 127t73 89t96 52t113 16q59 0 108 -16t83 -52t50 -89q9 -31 8 -69q0 -27 -4 -58l-41 -283h-497l-29 -213q-3 -23 -3 -44q0 -28 6 -51q11 -40 36 -66.5t61.5 -39t81.5 -12.5q41 0 107.5 14.5t144.5 40.5l-10 -75q-72 -25 -138.5 -38t-113.5 -13 q-59 0 -107.5 16t-82 52t-47.5 89q-9 31 -9 70q0 27 4 57zM256 547h426l31 213q3 23 3 43q0 29 -6 52q-12 40 -37.5 66.5t-62.5 39t-82 12.5q-90 0 -157.5 -51.5t-83.5 -161.5z" />
<glyph unicode="f" horiz-adv-x="593" d="M182 952l11 72h157l23 162q10 74 40.5 127t76 88t102.5 51t121 16l-11 -69q-96 0 -168.5 -51.5t-89.5 -161.5l-22 -162h258l-10 -72h-258l-133 -952h-72l133 952h-158z" />
<glyph unicode="g" d="M51 -467l12 78q70 -27 137 -41t130 -14q90 0 158.5 51t84.5 162l35 258q-55 -18 -110.5 -32.5t-108.5 -14.5q-59 0 -107.5 16t-82 52t-47.5 89q-9 31 -9 70q0 27 4 57l70 496q10 74 40 127t73 89t96 52t113 16q53 0 104 -14t102 -35l5 29h71l-176 -1255 q-23 -147 -115 -216t-211 -69q-68 0 -135 13.5t-133 35.5zM217 264q-3 -23 -3 -44q0 -28 6 -51q11 -40 36 -66.5t61.5 -39t81.5 -12.5q96 0 217 35l121 850q-111 37 -209 37q-90 0 -157.5 -51.5t-83.5 -161.5z" />
<glyph unicode="h" d="M111 0l215 1536h69l-76 -541q55 20 110.5 34.5t109.5 14.5q59 0 108 -16t83 -52t50 -89q9 -31 8 -69q0 -27 -4 -58l-106 -760h-72l107 760q3 23 3 43q0 29 -6 52q-12 40 -37.5 66.5t-62.5 39t-82 12.5q-100 0 -217 -37l-131 -936h-69z" />
<glyph unicode="i" horiz-adv-x="286" d="M106 0l144 1024h72l-144 -1024h-72zM272 1190l35 244h72l-35 -244h-72z" />
<glyph unicode="j" horiz-adv-x="286" d="M-197 -516l11 72q96 0 168.5 51t89.5 162l176 1255h71l-176 -1255q-23 -147 -118 -216t-222 -69zM270 1190l35 244h72l-35 -244h-72z" />
<glyph unicode="k" horiz-adv-x="753" d="M111 0l215 1536h69l-139 -989h203l286 477h78l-311 -512l170 -512h-78l-155 477h-203l-66 -477h-69z" />
<glyph unicode="l" horiz-adv-x="286" d="M106 0l216 1536h71l-215 -1536h-72z" />
<glyph unicode="m" horiz-adv-x="1187" d="M113 0l143 1024h72l-4 -33q53 23 104 38t86 15q115 0 176 -71q70 29 140.5 50t119.5 21q51 0 95.5 -16t74.5 -48q28 -32 42 -79q8 -28 8 -62q0 -23 -3 -48l-110 -791h-72l111 791q2 19 2 36q0 67 -37 102q-47 44 -121 44q-51 0 -108.5 -10.5t-116.5 -28.5q12 -28 17 -64 q2 -16 2 -34q0 -21 -3 -45l-110 -791h-72l110 791q2 19 2 36q-1 67 -37 102q-46 44 -120 44q-47 0 -92 -8.5t-97 -24.5l-131 -940h-71z" />
<glyph unicode="n" d="M111 0l143 1024h70l-7 -35q59 23 120 39t102 16q59 0 108 -16t83 -52t50 -89q9 -31 8 -69q0 -27 -4 -58l-106 -760h-72l107 760q3 23 3 43q0 29 -6 52q-12 40 -37.5 66.5t-62.5 39t-82 12.5q-100 0 -217 -37l-131 -936h-69z" />
<glyph unicode="o" d="M147 264l70 496q10 74 40 127t73 89t96 52t113 16q59 0 108 -16t83 -52t50 -89q9 -31 8 -69q0 -27 -4 -58l-69 -496q-23 -147 -115 -215.5t-211 -68.5q-59 0 -107.5 16t-82 52t-47.5 89q-9 31 -9 70q0 27 4 57zM217 264q-3 -23 -3 -44q0 -28 6 -51q11 -40 36 -66.5 t61.5 -39t81.5 -12.5q90 0 159 51.5t85 161.5l70 496q3 23 3 43q0 29 -6 52q-12 40 -37.5 66.5t-62.5 39t-82 12.5q-90 0 -157.5 -51.5t-83.5 -161.5z" />
<glyph unicode="p" d="M39 -496l215 1520h70l-5 -29q55 20 110.5 34.5t109.5 14.5q59 0 108 -16t83 -52t50 -89q9 -31 9 -69q0 -27 -5 -58l-69 -496q-23 -147 -115 -215.5t-211 -68.5q-53 0 -104.5 14t-102.5 33l-73 -523h-70zM190 86q115 -35 209 -35q90 0 159 51.5t85 161.5l70 496q3 23 3 43 q0 28 -6 52q-12 40 -37.5 66.5t-62.5 39t-82 12.5q-100 0 -217 -37z" />
<glyph unicode="q" d="M147 264l70 496q10 74 40 127t73 89t96 52t113 16q53 0 104 -14t102 -35l5 29h71l-215 -1520h-71l73 523q-55 -18 -110.5 -32.5t-108.5 -14.5q-59 0 -107.5 16t-82 52t-47.5 89q-9 31 -9 70q0 27 4 57zM217 264q-3 -23 -3 -44q0 -28 6 -51q11 -40 36 -66.5t61.5 -39 t81.5 -12.5q96 0 217 35l121 850q-111 37 -209 37q-90 0 -157.5 -51.5t-83.5 -161.5z" />
<glyph unicode="r" horiz-adv-x="419" d="M109 0l143 1024h70l-7 -35q59 23 120 39t104 16l-11 -71q-102 0 -219 -37l-131 -936h-69z" />
<glyph unicode="s" d="M123 31l10 75q70 -27 136.5 -41t129.5 -14q90 0 159 51.5t85 167.5q3 23 3 43q0 37 -10 62q-15 39 -44 60.5t-66 29.5t-69 12q-43 4 -91.5 14.5t-85.5 40.5q-38 30 -58 82q-12 32 -12 78q0 28 5 62q10 76 41 131t74 91t96 52t113 16q47 0 109.5 -13t127.5 -38l-12 -75 q-68 27 -131.5 41t-104.5 14q-90 0 -158.5 -52.5t-84.5 -166.5q-4 -25 -4 -47q0 -34 10 -58q16 -39 45 -60.5t65.5 -30.5t69.5 -11q43 -4 91 -14.5t86 -40.5t58 -82q13 -33 14 -80q0 -28 -5 -60q-10 -78 -41 -132t-74 -90t-97 -52t-114 -16q-68 0 -134.5 13t-131.5 38z" />
<glyph unicode="t" horiz-adv-x="573" d="M182 952l11 72h137l26 199h72l-27 -199h258l-10 -72h-258l-96 -688q-3 -22 -3 -42q0 -29 7 -53q12 -40 40 -66.5t67.5 -39t87.5 -12.5l-11 -71q-63 0 -115.5 16t-88 52t-51.5 89q-9 32 -9 72q0 26 4 55l96 688h-137z" />
<glyph unicode="u" d="M147 264l107 760h70l-107 -760q-3 -23 -3 -44q0 -28 6 -51q11 -40 36 -66.5t61.5 -39t81.5 -12.5q96 0 217 35l134 938h71l-143 -1024h-72l4 33q-61 -23 -120.5 -38t-100.5 -15q-59 0 -107.5 16t-82 52t-47.5 89q-9 31 -9 70q0 27 4 57z" />
<glyph unicode="v" horiz-adv-x="655" d="M147 1024h74l123 -870l367 870h75l-430 -1024h-67z" />
<glyph unicode="w" horiz-adv-x="1015" d="M152 1024h75l86 -877l260 598h64l96 -593l328 872h76l-387 -1024h-70l-98 596q-63 -147 -130 -298t-128 -298h-70z" />
<glyph unicode="x" horiz-adv-x="729" d="M37 0l352 512l-209 512h82l178 -438l301 438h80l-352 -512l211 -512h-80l-180 438l-301 -438h-82z" />
<glyph unicode="y" d="M51 -467l12 78q70 -27 137 -41t130 -14q90 0 158.5 51t84.5 162l37 264q-61 -23 -120.5 -38t-100.5 -15q-59 0 -107.5 16t-82 52t-47.5 89q-9 31 -9 70q0 27 4 57l107 760h70l-107 -760q-3 -23 -3 -44q0 -28 6 -51q11 -40 36 -66.5t61.5 -39t81.5 -12.5q96 0 217 35 l134 938h71l-176 -1255q-23 -147 -115 -216t-211 -69q-68 0 -135 13.5t-133 35.5z" />
<glyph unicode="z" d="M111 0l8 59l606 893h-481l10 72h567l-8 -59l-610 -893h483l-8 -72h-567z" />
<glyph unicode="{" horiz-adv-x="702" d="M199 711l161 141q59 53 68 123l45 311q23 162 112 257t228 95l-10 -69q-109 0 -174.5 -77t-83.5 -206l-47 -328q-6 -47 -25.5 -80.5t-54.5 -66.5l-115 -100l86 -103q27 -31 36 -64.5t3 -80.5l-45 -328q-18 -129 26 -205.5t152 -76.5l-10 -72q-139 0 -200.5 96t-39.5 258 l43 311q12 70 -32 123z" />
<glyph unicode="|" horiz-adv-x="286" d="M78 -199l256 1819h72l-256 -1819h-72z" />
<glyph unicode="}" horiz-adv-x="702" d="M76 -219l10 72q109 0 175.5 76.5t84.5 205.5l45 328q6 47 25.5 81t54.5 64l115 103l-86 100q-27 33 -36 66.5t-3 80.5l47 328q18 129 -27 206t-153 77l10 69q139 0 201.5 -95t40.5 -257l-45 -311q-4 -37 2 -65.5t32 -57.5l121 -141l-160 -142q-35 -29 -49 -57.5 t-20 -65.5l-43 -311q-23 -162 -113 -258t-229 -96z" />
<glyph unicode="~" horiz-adv-x="835" d="M195 598q8 68 29.5 114t50 73.5t61.5 40t67 12.5q49 0 78 -33t56 -70q20 -31 41.5 -53.5t50.5 -22.5q45 0 78.5 35t48.5 133h71q-10 -68 -30.5 -113.5t-49 -73.5t-62.5 -40t-67 -12q-55 0 -93 38t-60 74q-18 25 -36 45.5t-36 20.5q-45 0 -79.5 -36t-47.5 -132h-71z" />
<glyph unicode="&#xa2;" horiz-adv-x="757" d="M145 264l70 496q18 137 99 204.5t190 77.5l24 181h70l-25 -181q43 -4 95.5 -16t107.5 -33l-12 -75q-55 23 -107.5 36t-93.5 17l-129 -918q43 4 99.5 17.5t117.5 35.5l-10 -75q-59 -20 -115.5 -32.5t-101.5 -16.5l-25 -181h-69l24 181q-53 4 -95 23.5t-70.5 54t-41 86 t-2.5 118.5zM217 264q-16 -100 28 -150.5t120 -60.5l129 918q-78 -10 -135.5 -60.5t-71.5 -150.5z" />
<glyph unicode="&#xa3;" horiz-adv-x="901" d="M145 674l11 71h157l54 381q12 80 44.5 139.5t81 98.5t107.5 57.5t125 18.5q137 0 266 -49l-10 -78q-143 57 -264 57q-102 0 -181 -57.5t-98 -186.5l-53 -381h299l-10 -71h-299l-86 -602h557l-8 -72h-629l94 674h-158z" />
<glyph unicode="&#xa5;" horiz-adv-x="860" d="M186 199l11 71h227l22 166h-227l10 72h228l2 8l-215 905h75l191 -803l412 803h75l-469 -911v-2h230l-10 -72h-230l-22 -166h229l-10 -71h-230l-26 -199h-72l27 199h-228z" />
<glyph unicode="&#xa7;" d="M117 -12l10 78q72 -27 137.5 -41.5t128.5 -14.5q90 0 159 51.5t85 165.5q8 66 -7.5 106t-44 61.5t-65.5 28.5t-69 11h-15v2q-43 4 -88 16.5t-80 42t-53 82t-6 136.5q14 96 58 157.5t110 94.5q-51 25 -82 81t-16 162q10 76 40.5 131.5t73.5 91t96.5 52t112.5 16.5 q47 0 109.5 -13t128.5 -38l-11 -76q-70 27 -133 41t-104 14q-90 0 -158.5 -52t-85.5 -167q-10 -66 6.5 -104.5t45 -60t65.5 -30.5t70 -12h14v-2q43 -4 89 -16t81 -42t53.5 -81t5.5 -135q-14 -98 -59 -159.5t-111 -94.5q51 -27 83 -82t18 -162q-10 -76 -41 -130t-74 -90 t-97.5 -52t-113.5 -16q-68 0 -134.5 13t-131.5 36zM279 713q-10 -66 6 -105t44.5 -60.5t65.5 -30.5t70 -11q90 4 158 56t84 163q8 63 -6.5 102t-42 60.5t-63.5 30t-69 12.5q-92 -4 -161.5 -55.5t-85.5 -161.5z" />
<glyph unicode="&#xa8;" horiz-adv-x="573" d="M274 1190l33 231h72l-33 -231h-72zM551 1190l33 231h71l-32 -231h-72z" />
<glyph unicode="&#xa9;" horiz-adv-x="860" d="M152 293l116 833q12 80 45 139.5t80 98.5t106.5 57.5t125.5 18.5q63 0 118.5 -18.5t92 -57.5t54 -98.5t5.5 -139.5l-117 -833q-12 -80 -45 -139.5t-81 -97.5t-108.5 -57t-123.5 -19q-66 0 -120 19t-91 57t-53.5 97.5t-3.5 139.5zM223 293q-18 -127 43.5 -184.5 t163.5 -57.5q51 0 97 14.5t83 43t61.5 74.5t35.5 110l116 833q8 63 -3 110.5t-39.5 76t-70.5 43t-94 14.5q-102 0 -180 -57.5t-96 -186.5zM305 461l70 500q16 102 78.5 148t144.5 46q43 0 84 -8t82 -25l-12 -75q-45 16 -88 26t-76 10q-53 0 -92 -28.5t-50 -93.5l-69 -500 q-10 -66 21.5 -94.5t84.5 -28.5q33 0 79 10t95 27l-10 -78q-43 -14 -87 -22.5t-87 -8.5q-82 0 -132 46t-36 149z" />
<glyph unicode="&#xab;" horiz-adv-x="923" d="M199 711l428 374l43 -51l-369 -323l279 -324l-58 -51zM486 711l428 374l43 -51l-369 -323l279 -324l-58 -51z" />
<glyph unicode="&#xac;" horiz-adv-x="757" d="M190 674v71h529v-299h-72v228h-457z" />
<glyph unicode="&#xad;" horiz-adv-x="757" d="M190 674v71h529v-71h-529z" />
<glyph unicode="&#xae;" horiz-adv-x="860" d="M152 293l116 833q12 80 45 139.5t80 98.5t106.5 57.5t125.5 18.5q63 0 118.5 -18.5t92 -57.5t54 -98.5t5.5 -139.5l-117 -833q-12 -80 -45 -139.5t-81 -97.5t-108.5 -57t-123.5 -19q-66 0 -120 19t-91 57t-53.5 97.5t-3.5 139.5zM223 293q-18 -127 43.5 -184.5 t163.5 -57.5q51 0 97 14.5t83 43t61.5 74.5t35.5 110l116 833q8 63 -3 110.5t-39.5 76t-70.5 43t-94 14.5q-102 0 -180 -57.5t-96 -186.5zM279 279l120 864h199v-2q74 -8 119 -54.5t33 -138.5l-25 -166q-12 -86 -54 -127t-91 -55l106 -321h-74l-102 309h-4h-113l-43 -309 h-71zM403 659h109q18 0 40.5 5.5t43 19.5t36 37.5t21.5 60.5l25 166q8 66 -28 94.5t-95 28.5h-94z" />
<glyph unicode="&#xb1;" horiz-adv-x="757" d="M190 277v71h529v-71h-529zM190 674v71h230v230h72v-230h227v-71h-227v-228h-72v228h-230z" />
<glyph unicode="&#xb4;" horiz-adv-x="606" d="M270 1210l383 246l39 -59l-387 -246z" />
<glyph unicode="&#xb8;" horiz-adv-x="518" d="M57 -346l11 78q37 -14 76.5 -24.5t64.5 -10.5q35 0 59.5 19.5t30.5 60.5q8 47 -18.5 61.5t-55.5 14.5h-73l94 180h73l-55 -109q23 -2 44.5 -9t37.5 -24.5t23.5 -44t1.5 -69.5q-10 -80 -59.5 -116t-112.5 -36q-66 0 -142 29z" />
<glyph unicode="&#xbb;" horiz-adv-x="923" d="M154 387l368 324l-278 323l59 51l322 -374l-426 -375zM441 387l368 324l-278 323l59 51l322 -374l-426 -375z" />
<glyph unicode="&#xc0;" horiz-adv-x="860" d="M45 0l545 1434h72l141 -1434h-78l-33 340h-442l-129 -340h-76zM276 412h408l-80 858zM397 1807l53 59l320 -246l-58 -59z" />
<glyph unicode="&#xc1;" horiz-adv-x="860" d="M45 0l545 1434h72l141 -1434h-78l-33 340h-442l-129 -340h-76zM276 412h408l-80 858zM536 1620l383 246l39 -59l-387 -246z" />
<glyph unicode="&#xc2;" horiz-adv-x="860" d="M45 0l545 1434h72l141 -1434h-78l-33 340h-442l-129 -340h-76zM276 412h408l-80 858zM397 1612l287 252l219 -252l-63 -53l-170 199l-226 -199z" />
<glyph unicode="&#xc3;" horiz-adv-x="860" d="M45 0l545 1434h72l141 -1434h-78l-33 340h-442l-129 -340h-76zM276 412h408l-80 858zM426 1600q20 137 62 189.5t110 52.5q51 0 66.5 -34t23.5 -73q8 -29 17.5 -51.5t35.5 -22.5q41 0 58.5 37t31.5 133h72q-18 -135 -59 -187t-111 -52q-31 0 -50.5 10t-31.5 27.5t-18 38 t-11 40.5q-4 23 -11 42.5t-23 19.5q-41 0 -58.5 -36t-31.5 -134h-72z" />
<glyph unicode="&#xc4;" horiz-adv-x="860" d="M45 0l545 1434h72l141 -1434h-78l-33 340h-442l-129 -340h-76zM276 412h408l-80 858zM475 1600l33 231h72l-33 -231h-72zM752 1600l33 231h71l-32 -231h-72z" />
<glyph unicode="&#xc5;" horiz-adv-x="860" d="M45 0l545 1434h72l141 -1434h-78l-33 340h-442l-129 -340h-76zM276 412h408l-80 858zM512 1717q10 63 60 108t116 45t104.5 -45t28.5 -108q-10 -66 -61.5 -111t-116.5 -45q-66 0 -103.5 45t-27.5 111zM581 1717q-4 -37 16.5 -60.5t55.5 -23.5t63.5 23.5t32.5 60.5 q4 35 -16 58.5t-55 23.5t-64 -23.5t-33 -58.5z" />
<glyph unicode="&#xc6;" horiz-adv-x="1001" d="M45 0l545 1434h532l-10 -72h-360l-86 -608h299l-11 -74h-299l-86 -608h361l-8 -72h-435l48 340h-285l-129 -340h-76zM276 412h269l133 950h-39z" />
<glyph unicode="&#xc7;" horiz-adv-x="778" d="M150 297l118 840q10 82 44 141t82 98t108.5 58.5t126.5 19.5q133 0 270 -51l-12 -78q-143 57 -269 57q-102 0 -182 -58t-96 -187l-119 -840q-10 -66 3.5 -112t42 -75.5t71.5 -44t94 -14.5q123 0 285 58l-10 -78q-123 -43 -242 -49l-29 -58q23 -2 45.5 -10t39 -24.5 t23.5 -44t1 -68.5q-10 -82 -60.5 -119t-113.5 -37q-68 0 -142 31l11 78q37 -14 75.5 -25.5t65.5 -11.5q33 0 59.5 20.5t32.5 63.5q4 25 -2 39t-17.5 22t-26.5 11.5t-28 3.5h-73l65 129q-59 4 -108.5 24.5t-82 59t-47 96t-3.5 135.5z" />
<glyph unicode="&#xc8;" horiz-adv-x="716" d="M109 0l200 1434h553l-10 -72h-481l-86 -608h422l-11 -74h-422l-86 -608h482l-8 -72h-553zM408 1807l53 59l320 -246l-58 -59z" />
<glyph unicode="&#xc9;" horiz-adv-x="716" d="M109 0l200 1434h553l-10 -72h-481l-86 -608h422l-11 -74h-422l-86 -608h482l-8 -72h-553zM383 1620l383 246l39 -59l-387 -246z" />
<glyph unicode="&#xca;" horiz-adv-x="716" d="M109 0l200 1434h553l-10 -72h-481l-86 -608h422l-11 -74h-422l-86 -608h482l-8 -72h-553zM325 1612l287 252l219 -252l-63 -53l-170 199l-226 -199z" />
<glyph unicode="&#xcb;" horiz-adv-x="716" d="M109 0l200 1434h553l-10 -72h-481l-86 -608h422l-11 -74h-422l-86 -608h482l-8 -72h-553zM403 1600l33 231h72l-33 -231h-72zM680 1600l33 231h71l-32 -231h-72z" />
<glyph unicode="&#xcc;" horiz-adv-x="286" d="M106 0l201 1434h72l-201 -1434h-72zM197 1807l53 59l320 -246l-58 -59z" />
<glyph unicode="&#xcd;" horiz-adv-x="286" d="M106 0l201 1434h72l-201 -1434h-72zM172 1620l383 246l39 -59l-387 -246z" />
<glyph unicode="&#xce;" horiz-adv-x="286" d="M106 0l201 1434h72l-201 -1434h-72zM114 1612l287 252l219 -252l-63 -53l-170 199l-226 -199z" />
<glyph unicode="&#xcf;" horiz-adv-x="286" d="M106 0l201 1434h72l-201 -1434h-72zM192 1600l33 231h72l-33 -231h-72zM469 1600l33 231h71l-32 -231h-72z" />
<glyph unicode="&#xd0;" horiz-adv-x="929" d="M143 680l11 74h147l96 680h297q66 0 120 -19.5t92 -58.5t54.5 -98.5t4.5 -139.5l-113 -803q-12 -80 -45 -139t-81 -98t-107.5 -58.5t-124.5 -19.5h-297l94 680h-148zM279 72h223q104 0 182 57t96 186l113 803q8 63 -3 110.5t-40 76t-72 43t-94 14.5h-223l-86 -608h311 l-10 -74h-311z" />
<glyph unicode="&#xd1;" horiz-adv-x="839" d="M109 0l200 1434h68l303 -1213l170 1213h72l-201 -1434h-66l-305 1212l-170 -1212h-71zM416 1600q20 137 62 189.5t110 52.5q51 0 66.5 -34t23.5 -73q8 -29 17.5 -51.5t35.5 -22.5q41 0 58.5 37t31.5 133h72q-18 -135 -59 -187t-111 -52q-31 0 -50.5 10t-31.5 27.5t-18 38 t-11 40.5q-4 23 -11 42.5t-23 19.5q-41 0 -58.5 -36t-31.5 -134h-72z" />
<glyph unicode="&#xd2;" horiz-adv-x="860" d="M150 297l118 840q10 82 44 141t82 98t108.5 58.5t126.5 19.5t120 -19.5t92 -58.5t54 -98t6 -141l-119 -840q-12 -82 -44.5 -141.5t-81 -98.5t-109 -58t-125.5 -19q-66 0 -121 19t-92 58t-54.5 98.5t-4.5 141.5zM221 297q-10 -66 3.5 -112t42 -75.5t71.5 -44t94 -14.5 q102 0 181 58.5t98 187.5l118 840q16 129 -46 187t-165 58q-102 0 -182 -58t-96 -187zM397 1807l53 59l320 -246l-58 -59z" />
<glyph unicode="&#xd3;" horiz-adv-x="860" d="M150 297l118 840q10 82 44 141t82 98t108.5 58.5t126.5 19.5t120 -19.5t92 -58.5t54 -98t6 -141l-119 -840q-12 -82 -44.5 -141.5t-81 -98.5t-109 -58t-125.5 -19q-66 0 -121 19t-92 58t-54.5 98.5t-4.5 141.5zM221 297q-10 -66 3.5 -112t42 -75.5t71.5 -44t94 -14.5 q102 0 181 58.5t98 187.5l118 840q16 129 -46 187t-165 58q-102 0 -182 -58t-96 -187zM536 1620l383 246l39 -59l-387 -246z" />
<glyph unicode="&#xd4;" horiz-adv-x="860" d="M150 297l118 840q10 82 44 141t82 98t108.5 58.5t126.5 19.5t120 -19.5t92 -58.5t54 -98t6 -141l-119 -840q-12 -82 -44.5 -141.5t-81 -98.5t-109 -58t-125.5 -19q-66 0 -121 19t-92 58t-54.5 98.5t-4.5 141.5zM221 297q-10 -66 3.5 -112t42 -75.5t71.5 -44t94 -14.5 q102 0 181 58.5t98 187.5l118 840q16 129 -46 187t-165 58q-102 0 -182 -58t-96 -187zM397 1612l287 252l219 -252l-63 -53l-170 199l-226 -199z" />
<glyph unicode="&#xd5;" horiz-adv-x="860" d="M150 297l118 840q10 82 44 141t82 98t108.5 58.5t126.5 19.5t120 -19.5t92 -58.5t54 -98t6 -141l-119 -840q-12 -82 -44.5 -141.5t-81 -98.5t-109 -58t-125.5 -19q-66 0 -121 19t-92 58t-54.5 98.5t-4.5 141.5zM221 297q-10 -66 3.5 -112t42 -75.5t71.5 -44t94 -14.5 q102 0 181 58.5t98 187.5l118 840q16 129 -46 187t-165 58q-102 0 -182 -58t-96 -187zM426 1600q20 137 62 189.5t110 52.5q51 0 66.5 -34t23.5 -73q8 -29 17.5 -51.5t35.5 -22.5q41 0 58.5 37t31.5 133h72q-18 -135 -59 -187t-111 -52q-31 0 -50.5 10t-31.5 27.5t-18 38 t-11 40.5q-4 23 -11 42.5t-23 19.5q-41 0 -58.5 -36t-31.5 -134h-72z" />
<glyph unicode="&#xd6;" horiz-adv-x="860" d="M150 297l118 840q10 82 44 141t82 98t108.5 58.5t126.5 19.5t120 -19.5t92 -58.5t54 -98t6 -141l-119 -840q-12 -82 -44.5 -141.5t-81 -98.5t-109 -58t-125.5 -19q-66 0 -121 19t-92 58t-54.5 98.5t-4.5 141.5zM221 297q-10 -66 3.5 -112t42 -75.5t71.5 -44t94 -14.5 q102 0 181 58.5t98 187.5l118 840q16 129 -46 187t-165 58q-102 0 -182 -58t-96 -187zM475 1600l33 231h72l-33 -231h-72zM752 1600l33 231h71l-32 -231h-72z" />
<glyph unicode="&#xd8;" horiz-adv-x="860" d="M57 10l95 156q-14 59 -2 131l118 840q10 82 44 141t82 98t108.5 58.5t126.5 19.5q78 0 140 -26.5t97 -81.5l70 112l57 -33l-96 -159q12 -57 4 -129l-119 -840q-12 -82 -44.5 -141.5t-81 -98.5t-109 -58t-125.5 -19q-78 0 -141.5 26.5t-98.5 83.5l-69 -115zM217 274 l600 992q-23 59 -75 87.5t-124 28.5q-102 0 -182 -58t-96 -187l-119 -840zM229 168q23 -59 77 -88t126 -29q102 0 181 58.5t98 187.5l118 840q0 4 -1 9t1 9z" />
<glyph unicode="&#xd9;" horiz-adv-x="839" d="M150 297l159 1137h72l-160 -1137q-18 -129 40 -187.5t161 -58.5q100 0 175 58.5t93 187.5l160 1137h72l-160 -1137q-12 -82 -43 -141.5t-77 -98.5t-105.5 -58t-124.5 -19q-66 0 -120 19t-89 58t-50.5 98.5t-2.5 141.5zM408 1807l53 59l320 -246l-58 -59z" />
<glyph unicode="&#xda;" horiz-adv-x="839" d="M150 297l159 1137h72l-160 -1137q-18 -129 40 -187.5t161 -58.5q100 0 175 58.5t93 187.5l160 1137h72l-160 -1137q-12 -82 -43 -141.5t-77 -98.5t-105.5 -58t-124.5 -19q-66 0 -120 19t-89 58t-50.5 98.5t-2.5 141.5zM526 1620l383 246l39 -59l-387 -246z" />
<glyph unicode="&#xdb;" horiz-adv-x="839" d="M150 297l159 1137h72l-160 -1137q-18 -129 40 -187.5t161 -58.5q100 0 175 58.5t93 187.5l160 1137h72l-160 -1137q-12 -82 -43 -141.5t-77 -98.5t-105.5 -58t-124.5 -19q-66 0 -120 19t-89 58t-50.5 98.5t-2.5 141.5zM387 1612l287 252l219 -252l-63 -53l-170 199 l-226 -199z" />
<glyph unicode="&#xdc;" horiz-adv-x="839" d="M150 297l159 1137h72l-160 -1137q-18 -129 40 -187.5t161 -58.5q100 0 175 58.5t93 187.5l160 1137h72l-160 -1137q-12 -82 -43 -141.5t-77 -98.5t-105.5 -58t-124.5 -19q-66 0 -120 19t-89 58t-50.5 98.5t-2.5 141.5zM464 1600l33 231h72l-33 -231h-72zM741 1600l33 231 h71l-32 -231h-72z" />
<glyph unicode="&#xdd;" horiz-adv-x="860" d="M244 1434h75l193 -809l416 809h78l-474 -920l-71 -514h-72l72 518zM454 1620l383 246l39 -59l-387 -246z" />
<glyph unicode="&#xde;" horiz-adv-x="757" d="M109 0l200 1434h72l-37 -260h184q66 0 121.5 -19.5t92 -58.5t54 -98.5t5.5 -141.5l-39 -278q-14 -104 -55 -165t-94.5 -93.5t-110 -44t-101.5 -15.5h-186l-35 -260h-71zM225 332h183q33 2 77.5 10t85.5 32.5t74 73t45 130.5l39 278q8 66 -4 112t-41 75.5t-72 44t-94 14.5 h-184z" />
<glyph unicode="&#xdf;" horiz-adv-x="860" d="M111 0l172 1227q10 80 42.5 139t81 97t107.5 57.5t125 19.5q63 0 118.5 -19.5t92.5 -57.5t53.5 -97t5.5 -139l-20 -140q-16 -123 -72.5 -186t-126.5 -92q31 -14 56.5 -36.5t43 -55.5t23.5 -78t-2 -107l-31 -219q-12 -80 -46 -139t-84 -98t-112.5 -57.5t-129.5 -18.5l8 72 q53 0 102 14t88 43t65.5 75t37.5 109l30 219q10 76 -7 121t-49 71t-72 36t-74 14q-8 -2 -23 -2l12 76q6 -2 21 -2q35 2 78 12t81.5 35t69.5 71t41 123l21 140q8 63 -4.5 109t-41 75t-70.5 43t-93 14t-97.5 -14t-83 -43t-61.5 -75t-33 -109l-172 -1227h-71z" />
<glyph unicode="&#xe0;" d="M145 264h2l11 80q10 74 40.5 127t73.5 88t96.5 51.5t112.5 16.5h213l19 133q8 55 -3.5 95t-37 66.5t-61.5 39t-79 12.5q-47 0 -112.5 -14.5t-143.5 -40.5l13 75q150 51 256 51q55 0 103 -16t82 -52t49.5 -89t4.5 -127l-106 -760h-72l2 29q-59 -20 -118.5 -34.5 t-100.5 -14.5q-59 0 -108.5 16t-83 52t-48 89t-4.5 127zM217 264q-8 -55 3 -95t36 -66.5t61.5 -39t81.5 -12.5q96 0 217 35l68 469h-213q-90 0 -158.5 -50t-85.5 -161zM391 1397l53 59l320 -246l-58 -59z" />
<glyph unicode="&#xe1;" d="M145 264h2l11 80q10 74 40.5 127t73.5 88t96.5 51.5t112.5 16.5h213l19 133q8 55 -3.5 95t-37 66.5t-61.5 39t-79 12.5q-47 0 -112.5 -14.5t-143.5 -40.5l13 75q150 51 256 51q55 0 103 -16t82 -52t49.5 -89t4.5 -127l-106 -760h-72l2 29q-59 -20 -118.5 -34.5 t-100.5 -14.5q-59 0 -108.5 16t-83 52t-48 89t-4.5 127zM217 264q-8 -55 3 -95t36 -66.5t61.5 -39t81.5 -12.5q96 0 217 35l68 469h-213q-90 0 -158.5 -50t-85.5 -161zM366 1210l383 246l39 -59l-387 -246z" />
<glyph unicode="&#xe2;" d="M145 264h2l11 80q10 74 40.5 127t73.5 88t96.5 51.5t112.5 16.5h213l19 133q8 55 -3.5 95t-37 66.5t-61.5 39t-79 12.5q-47 0 -112.5 -14.5t-143.5 -40.5l13 75q150 51 256 51q55 0 103 -16t82 -52t49.5 -89t4.5 -127l-106 -760h-72l2 29q-59 -20 -118.5 -34.5 t-100.5 -14.5q-59 0 -108.5 16t-83 52t-48 89t-4.5 127zM217 264q-8 -55 3 -95t36 -66.5t61.5 -39t81.5 -12.5q96 0 217 35l68 469h-213q-90 0 -158.5 -50t-85.5 -161zM309 1202l287 252l219 -252l-63 -53l-170 199l-226 -199z" />
<glyph unicode="&#xe3;" d="M145 264h2l11 80q10 74 40.5 127t73.5 88t96.5 51.5t112.5 16.5h213l19 133q8 55 -3.5 95t-37 66.5t-61.5 39t-79 12.5q-47 0 -112.5 -14.5t-143.5 -40.5l13 75q150 51 256 51q55 0 103 -16t82 -52t49.5 -89t4.5 -127l-106 -760h-72l2 29q-59 -20 -118.5 -34.5 t-100.5 -14.5q-59 0 -108.5 16t-83 52t-48 89t-4.5 127zM217 264q-8 -55 3 -95t36 -66.5t61.5 -39t81.5 -12.5q96 0 217 35l68 469h-213q-90 0 -158.5 -50t-85.5 -161zM338 1190q20 137 62 189.5t110 52.5q51 0 66.5 -34t23.5 -73q8 -29 17.5 -51.5t35.5 -22.5q41 0 58.5 37 t31.5 133h72q-18 -135 -59 -187t-111 -52q-31 0 -50.5 10t-31.5 27.5t-18 38t-11 40.5q-4 23 -11 42.5t-23 19.5q-41 0 -58.5 -36t-31.5 -134h-72z" />
<glyph unicode="&#xe4;" d="M145 264h2l11 80q10 74 40.5 127t73.5 88t96.5 51.5t112.5 16.5h213l19 133q8 55 -3.5 95t-37 66.5t-61.5 39t-79 12.5q-47 0 -112.5 -14.5t-143.5 -40.5l13 75q150 51 256 51q55 0 103 -16t82 -52t49.5 -89t4.5 -127l-106 -760h-72l2 29q-59 -20 -118.5 -34.5 t-100.5 -14.5q-59 0 -108.5 16t-83 52t-48 89t-4.5 127zM217 264q-8 -55 3 -95t36 -66.5t61.5 -39t81.5 -12.5q96 0 217 35l68 469h-213q-90 0 -158.5 -50t-85.5 -161zM387 1190l33 231h72l-33 -231h-72zM664 1190l33 231h71l-32 -231h-72z" />
<glyph unicode="&#xe5;" d="M145 264h2l11 80q10 74 40.5 127t73.5 88t96.5 51.5t112.5 16.5h213l19 133q8 55 -3.5 95t-37 66.5t-61.5 39t-79 12.5q-47 0 -112.5 -14.5t-143.5 -40.5l13 75q150 51 256 51q55 0 103 -16t82 -52t49.5 -89t4.5 -127l-106 -760h-72l2 29q-59 -20 -118.5 -34.5 t-100.5 -14.5q-59 0 -108.5 16t-83 52t-48 89t-4.5 127zM217 264q-8 -55 3 -95t36 -66.5t61.5 -39t81.5 -12.5q96 0 217 35l68 469h-213q-90 0 -158.5 -50t-85.5 -161zM424 1307q10 63 60 108t116 45t104.5 -45t28.5 -108q-10 -66 -61.5 -111t-116.5 -45q-66 0 -103.5 45 t-27.5 111zM493 1307q-4 -37 16.5 -60.5t55.5 -23.5t63.5 23.5t32.5 60.5q4 35 -16 58.5t-55 23.5t-64 -23.5t-33 -58.5z" />
<glyph unicode="&#xe6;" horiz-adv-x="1310" d="M152 264l10 80q10 74 40.5 127t73.5 88t96.5 51.5t112.5 16.5h213l19 133q8 55 -3.5 95t-37 66.5t-62 39t-82.5 12.5q-41 0 -107.5 -14.5t-143.5 -40.5l12 75q72 25 137.5 38t112.5 13q90 0 149.5 -38.5t75.5 -118.5q41 80 110.5 118.5t159.5 38.5q59 0 108.5 -16 t83.5 -52t49 -89t5 -127l-41 -283h-495l-29 -213q-8 -55 2 -95t34.5 -66.5t61.5 -39t82 -12.5q41 0 108.5 14.5t145.5 40.5l-10 -75q-74 -25 -140.5 -38t-113.5 -13q-92 0 -151.5 39.5t-75.5 127.5q-41 -86 -110 -126.5t-159 -40.5q-59 0 -107 16t-82 52t-48.5 89t-3.5 127z M221 264q-8 -55 3.5 -95t36 -66.5t61 -39t81.5 -12.5q86 0 155 52.5t89 164.5l41 287h-213q-90 0 -158.5 -50t-85.5 -161zM758 547h424l30 213q8 55 -3 95t-36.5 66.5t-62.5 39t-82 12.5q-90 0 -156.5 -51.5t-83.5 -161.5z" />
<glyph unicode="&#xe7;" horiz-adv-x="757" d="M145 264l70 496q20 147 112.5 215.5t211.5 68.5q47 0 109.5 -13t127.5 -38l-12 -75q-68 27 -131.5 41t-104.5 14q-90 0 -157.5 -51.5t-83.5 -161.5l-70 -496q-8 -55 3 -95t36 -66.5t61.5 -39t81.5 -12.5q41 0 107.5 14.5t144.5 40.5l-10 -75q-66 -23 -126 -35t-107 -16 l-27 -56q23 -2 44 -9t37.5 -24.5t24 -44t0.5 -69.5q-10 -80 -59 -116t-113 -36q-66 0 -139 29l10 78q35 -14 75 -24.5t65 -10.5q35 0 59.5 19.5t30.5 60.5q8 47 -18.5 61.5t-55.5 14.5h-72l68 131q-96 12 -153.5 79.5t-39.5 200.5z" />
<glyph unicode="&#xe8;" d="M147 264l70 496q10 74 40 127t73 89t96 52t113 16q59 0 108 -16t83 -52t49.5 -89t4.5 -127l-41 -283h-497l-29 -213q-8 -55 3 -95t36 -66.5t61.5 -39t81.5 -12.5q41 0 107.5 14.5t144.5 40.5l-10 -75q-72 -25 -138.5 -38t-113.5 -13q-59 0 -107.5 16t-82 52t-48 89 t-4.5 127zM256 547h426l31 213q8 55 -3.5 95t-37 66.5t-62.5 39t-82 12.5q-90 0 -157.5 -51.5t-83.5 -161.5zM350 1397l53 59l320 -246l-58 -59z" />
<glyph unicode="&#xe9;" d="M147 264l70 496q10 74 40 127t73 89t96 52t113 16q59 0 108 -16t83 -52t49.5 -89t4.5 -127l-41 -283h-497l-29 -213q-8 -55 3 -95t36 -66.5t61.5 -39t81.5 -12.5q41 0 107.5 14.5t144.5 40.5l-10 -75q-72 -25 -138.5 -38t-113.5 -13q-59 0 -107.5 16t-82 52t-48 89 t-4.5 127zM256 547h426l31 213q8 55 -3.5 95t-37 66.5t-62.5 39t-82 12.5q-90 0 -157.5 -51.5t-83.5 -161.5zM407 1210l383 246l39 -59l-387 -246z" />
<glyph unicode="&#xea;" d="M147 264l70 496q10 74 40 127t73 89t96 52t113 16q59 0 108 -16t83 -52t49.5 -89t4.5 -127l-41 -283h-497l-29 -213q-8 -55 3 -95t36 -66.5t61.5 -39t81.5 -12.5q41 0 107.5 14.5t144.5 40.5l-10 -75q-72 -25 -138.5 -38t-113.5 -13q-59 0 -107.5 16t-82 52t-48 89 t-4.5 127zM256 547h426l31 213q8 55 -3.5 95t-37 66.5t-62.5 39t-82 12.5q-90 0 -157.5 -51.5t-83.5 -161.5zM309 1202l287 252l219 -252l-63 -53l-170 199l-226 -199z" />
<glyph unicode="&#xeb;" d="M147 264l70 496q10 74 40 127t73 89t96 52t113 16q59 0 108 -16t83 -52t49.5 -89t4.5 -127l-41 -283h-497l-29 -213q-8 -55 3 -95t36 -66.5t61.5 -39t81.5 -12.5q41 0 107.5 14.5t144.5 40.5l-10 -75q-72 -25 -138.5 -38t-113.5 -13q-59 0 -107.5 16t-82 52t-48 89 t-4.5 127zM256 547h426l31 213q8 55 -3.5 95t-37 66.5t-62.5 39t-82 12.5q-90 0 -157.5 -51.5t-83.5 -161.5zM387 1190l33 231h72l-33 -231h-72zM664 1190l33 231h71l-32 -231h-72z" />
<glyph unicode="&#xec;" horiz-adv-x="286" d="M106 0l144 1024h72l-144 -1024h-72zM137 1397l53 59l320 -246l-58 -59z" />
<glyph unicode="&#xed;" horiz-adv-x="286" d="M106 0l144 1024h72l-144 -1024h-72zM112 1210l383 246l39 -59l-387 -246z" />
<glyph unicode="&#xee;" horiz-adv-x="286" d="M55 1202l287 252l219 -252l-63 -53l-170 199l-226 -199zM106 0l144 1024h72l-144 -1024h-72z" />
<glyph unicode="&#xef;" horiz-adv-x="286" d="M106 0l144 1024h72l-144 -1024h-72zM133 1190l33 231h72l-33 -231h-72zM410 1190l33 231h71l-32 -231h-72z" />
<glyph unicode="&#xf0;" d="M147 264l70 496q20 147 112.5 215.5t211.5 68.5q41 0 92 -15t106 -38q-6 47 -16 94.5t-25 98.5l-20 71l-229 -77l-15 69l225 78l-49 195h76l43 -172l227 79l17 -69l-228 -78l19 -63q29 -109 35 -211.5t-11 -214.5l-75 -543h-2q-14 -70 -45 -120t-74 -83t-94.5 -49 t-106.5 -16q-59 0 -108.5 16t-83 52t-48 89t-4.5 127zM219 264q-16 -111 38 -162t144 -51t158 51.5t84 161.5l78 557h16q6 61 6 115q-57 16 -110 26.5t-103 10.5q-92 0 -158.5 -51.5t-82.5 -161.5z" />
<glyph unicode="&#xf1;" d="M111 0l143 1024h70l-7 -35q59 23 120 39t102 16q59 0 108 -16t83 -52t49.5 -89t4.5 -127l-106 -760h-72l107 760q8 55 -3.5 95t-37 66.5t-62.5 39t-82 12.5q-100 0 -217 -37l-131 -936h-69zM344 1190q20 137 62 189.5t110 52.5q51 0 66.5 -34t23.5 -73q8 -29 17.5 -51.5 t35.5 -22.5q41 0 58.5 37t31.5 133h72q-18 -135 -59 -187t-111 -52q-31 0 -50.5 10t-31.5 27.5t-18 38t-11 40.5q-4 23 -11 42.5t-23 19.5q-41 0 -58.5 -36t-31.5 -134h-72z" />
<glyph unicode="&#xf2;" d="M147 264l70 496q10 74 40 127t73 89t96 52t113 16q59 0 108 -16t83 -52t49.5 -89t4.5 -127l-69 -496q-23 -147 -115 -215.5t-211 -68.5q-59 0 -107.5 16t-82 52t-48 89t-4.5 127zM217 264q-8 -55 3 -95t36 -66.5t61.5 -39t81.5 -12.5q90 0 159 51.5t85 161.5l70 496 q8 55 -3.5 95t-37 66.5t-62.5 39t-82 12.5q-90 0 -157.5 -51.5t-83.5 -161.5zM330 1397l53 59l320 -246l-58 -59z" />
<glyph unicode="&#xf3;" d="M147 264l70 496q10 74 40 127t73 89t96 52t113 16q59 0 108 -16t83 -52t49.5 -89t4.5 -127l-69 -496q-23 -147 -115 -215.5t-211 -68.5q-59 0 -107.5 16t-82 52t-48 89t-4.5 127zM217 264q-8 -55 3 -95t36 -66.5t61.5 -39t81.5 -12.5q90 0 159 51.5t85 161.5l70 496 q8 55 -3.5 95t-37 66.5t-62.5 39t-82 12.5q-90 0 -157.5 -51.5t-83.5 -161.5zM448 1210l383 246l39 -59l-387 -246z" />
<glyph unicode="&#xf4;" d="M147 264l70 496q10 74 40 127t73 89t96 52t113 16q59 0 108 -16t83 -52t49.5 -89t4.5 -127l-69 -496q-23 -147 -115 -215.5t-211 -68.5q-59 0 -107.5 16t-82 52t-48 89t-4.5 127zM217 264q-8 -55 3 -95t36 -66.5t61.5 -39t81.5 -12.5q90 0 159 51.5t85 161.5l70 496 q8 55 -3.5 95t-37 66.5t-62.5 39t-82 12.5q-90 0 -157.5 -51.5t-83.5 -161.5zM309 1202l287 252l219 -252l-63 -53l-170 199l-226 -199z" />
<glyph unicode="&#xf5;" d="M147 264l70 496q10 74 40 127t73 89t96 52t113 16q59 0 108 -16t83 -52t49.5 -89t4.5 -127l-69 -496q-23 -147 -115 -215.5t-211 -68.5q-59 0 -107.5 16t-82 52t-48 89t-4.5 127zM217 264q-8 -55 3 -95t36 -66.5t61.5 -39t81.5 -12.5q90 0 159 51.5t85 161.5l70 496 q8 55 -3.5 95t-37 66.5t-62.5 39t-82 12.5q-90 0 -157.5 -51.5t-83.5 -161.5zM338 1190q20 137 62 189.5t110 52.5q51 0 66.5 -34t23.5 -73q8 -29 17.5 -51.5t35.5 -22.5q41 0 58.5 37t31.5 133h72q-18 -135 -59 -187t-111 -52q-31 0 -50.5 10t-31.5 27.5t-18 38t-11 40.5 q-4 23 -11 42.5t-23 19.5q-41 0 -58.5 -36t-31.5 -134h-72z" />
<glyph unicode="&#xf6;" d="M147 264l70 496q10 74 40 127t73 89t96 52t113 16q59 0 108 -16t83 -52t49.5 -89t4.5 -127l-69 -496q-23 -147 -115 -215.5t-211 -68.5q-59 0 -107.5 16t-82 52t-48 89t-4.5 127zM217 264q-8 -55 3 -95t36 -66.5t61.5 -39t81.5 -12.5q90 0 159 51.5t85 161.5l70 496 q8 55 -3.5 95t-37 66.5t-62.5 39t-82 12.5q-90 0 -157.5 -51.5t-83.5 -161.5zM387 1190l33 231h72l-33 -231h-72zM664 1190l33 231h71l-32 -231h-72z" />
<glyph unicode="&#xf7;" horiz-adv-x="757" d="M203 674l10 71h528l-10 -71h-528zM399 446l19 132h71l-18 -132h-72zM455 844l18 131h72l-19 -131h-71z" />
<glyph unicode="&#xf8;" d="M27 10l118 152q-6 47 2 102l70 496q10 74 40 127t73 89t96 52t113 16q72 0 130 -25.5t89 -78.5l84 107l61 -33l-119 -152q4 -23 4 -48.5t-4 -53.5l-69 -496q-23 -147 -115 -215.5t-211 -68.5q-72 0 -130 25.5t-89 80.5l-86 -111zM215 250l487 620q-18 53 -65 78t-109 25 q-90 0 -157.5 -51.5t-83.5 -161.5l-70 -496zM223 154q18 -53 65.5 -78t110.5 -25q90 0 159 51.5t85 161.5l70 496v12z" />
<glyph unicode="&#xf9;" d="M147 264l107 760h70l-107 -760q-8 -55 3 -95t36 -66.5t61.5 -39t81.5 -12.5q96 0 217 35l134 938h71l-143 -1024h-72l4 33q-61 -23 -120.5 -38t-100.5 -15q-59 0 -107.5 16t-82 52t-48 89t-4.5 127zM350 1397l53 59l320 -246l-58 -59z" />
<glyph unicode="&#xfa;" d="M147 264l107 760h70l-107 -760q-8 -55 3 -95t36 -66.5t61.5 -39t81.5 -12.5q96 0 217 35l134 938h71l-143 -1024h-72l4 33q-61 -23 -120.5 -38t-100.5 -15q-59 0 -107.5 16t-82 52t-48 89t-4.5 127zM428 1210l383 246l39 -59l-387 -246z" />
<glyph unicode="&#xfb;" d="M147 264l107 760h70l-107 -760q-8 -55 3 -95t36 -66.5t61.5 -39t81.5 -12.5q96 0 217 35l134 938h71l-143 -1024h-72l4 33q-61 -23 -120.5 -38t-100.5 -15q-59 0 -107.5 16t-82 52t-48 89t-4.5 127zM309 1202l287 252l219 -252l-63 -53l-170 199l-226 -199z" />
<glyph unicode="&#xfc;" d="M147 264l107 760h70l-107 -760q-8 -55 3 -95t36 -66.5t61.5 -39t81.5 -12.5q96 0 217 35l134 938h71l-143 -1024h-72l4 33q-61 -23 -120.5 -38t-100.5 -15q-59 0 -107.5 16t-82 52t-48 89t-4.5 127zM387 1190l33 231h72l-33 -231h-72zM664 1190l33 231h71l-32 -231h-72z " />
<glyph unicode="&#xfd;" d="M51 -467l12 78q70 -27 137 -41t130 -14q90 0 158.5 51t84.5 162l37 264q-61 -23 -120.5 -38t-100.5 -15q-59 0 -107.5 16t-82 52t-48 89t-4.5 127l107 760h70l-107 -760q-8 -55 3 -95t36 -66.5t61.5 -39t81.5 -12.5q96 0 217 35l134 938h71l-176 -1255 q-23 -147 -115 -216t-211 -69q-68 0 -135 13.5t-133 35.5zM366 1210l383 246l39 -59l-387 -246z" />
<glyph unicode="&#xfe;" d="M39 -496l285 2016h69l-76 -531q59 23 120 39t102 16q59 0 108 -16t83 -52t49.5 -89t4.5 -127l-69 -496q-23 -147 -115 -215.5t-211 -68.5q-41 0 -96 15t-109 38l-75 -529h-70zM190 86q115 -35 209 -35q90 0 159 51.5t85 161.5l70 496q8 55 -3.5 95t-37 66.5t-62.5 39 t-82 12.5q-100 0 -217 -37z" />
<glyph unicode="&#xff;" d="M51 -467l12 78q70 -27 137 -41t130 -14q90 0 158.5 51t84.5 162l37 264q-61 -23 -120.5 -38t-100.5 -15q-59 0 -107.5 16t-82 52t-48 89t-4.5 127l107 760h70l-107 -760q-8 -55 3 -95t36 -66.5t61.5 -39t81.5 -12.5q96 0 217 35l134 938h71l-176 -1255 q-23 -147 -115 -216t-211 -69q-68 0 -135 13.5t-133 35.5zM387 1190l33 231h72l-33 -231h-72zM664 1190l33 231h71l-32 -231h-72z" />
<glyph unicode="&#x131;" horiz-adv-x="286" d="M106 0l144 1024h72l-144 -1024h-72z" />
<glyph unicode="&#x152;" horiz-adv-x="1310" d="M154 297l118 840q10 82 43 141t81 98t108.5 58.5t126.5 19.5q78 0 138 -27.5t91 -85.5l12 93h553l-10 -72h-479l-86 -608h420l-10 -74h-420l-86 -608h479l-8 -72h-553l12 92q-47 -57 -114.5 -84.5t-145.5 -27.5q-66 0 -120 19t-92 58t-54.5 98.5t-3.5 141.5zM225 297 q-10 -66 3.5 -112t42 -75.5t70.5 -44t93 -14.5q104 0 182 58.5t97 187.5l118 852q12 121 -49 177t-161 56q-51 0 -97.5 -14t-83.5 -44t-62.5 -77t-33.5 -110z" />
<glyph unicode="&#x153;" horiz-adv-x="1310" d="M152 264l69 496q10 74 40 127t73 89t96 52t113 16q90 0 149.5 -38.5t75.5 -118.5q41 80 110.5 118.5t159.5 38.5q59 0 108.5 -16t83.5 -52t49 -89t5 -127l-41 -283h-495l-29 -213q-8 -55 2 -95t34.5 -66.5t61.5 -39t82 -12.5q41 0 108.5 14.5t145.5 40.5l-10 -75 q-74 -25 -140.5 -38t-113.5 -13q-90 0 -149.5 37.5t-75.5 117.5q-41 -80 -111 -117.5t-160 -37.5q-59 0 -107 16t-82 52t-48.5 89t-3.5 127zM221 264q-8 -55 3.5 -95t36 -66.5t61 -39t81.5 -12.5q90 0 159 51.5t85 161.5l70 496q8 55 -3.5 95t-37 66.5t-62 39t-82.5 12.5 q-90 0 -157.5 -51.5t-83.5 -161.5zM758 547h424l30 213q8 55 -3 95t-36.5 66.5t-62.5 39t-82 12.5q-90 0 -156.5 -51.5t-83.5 -161.5z" />
<glyph unicode="&#x178;" horiz-adv-x="860" d="M244 1434h75l193 -809l416 809h78l-474 -920l-71 -514h-72l72 518zM475 1600l33 231h72l-33 -231h-72zM752 1600l33 231h71l-32 -231h-72z" />
<glyph unicode="&#x2c6;" horiz-adv-x="716" d="M268 1202l287 252l219 -252l-63 -53l-170 199l-226 -199z" />
<glyph unicode="&#x2da;" horiz-adv-x="532" d="M291 1307q10 63 60 108t116 45t104.5 -45t28.5 -108q-10 -66 -61.5 -111t-116.5 -45q-66 0 -103.5 45t-27.5 111zM360 1307q-4 -37 16.5 -60.5t55.5 -23.5t63.5 23.5t32.5 60.5q4 35 -16 58.5t-55 23.5t-64 -23.5t-33 -58.5z" />
<glyph unicode="&#x2dc;" horiz-adv-x="716" d="M250 1190q20 137 62 189.5t110 52.5q51 0 66.5 -34t23.5 -73q8 -29 17.5 -51.5t35.5 -22.5q41 0 58.5 37t31.5 133h72q-18 -135 -59 -187t-111 -52q-31 0 -50.5 10t-31.5 27.5t-18 38t-11 40.5q-4 23 -11 42.5t-23 19.5q-41 0 -58.5 -36t-31.5 -134h-72z" />
<glyph unicode="&#x400;" horiz-adv-x="778" d="M109 0l200 1434h553l-10 -72h-481l-86 -608h422l-11 -74h-422l-86 -608h482l-8 -72h-553zM438 1807l53 59l320 -246l-58 -59z" />
<glyph unicode="&#x401;" horiz-adv-x="778" d="M109 0l200 1434h553l-10 -72h-481l-86 -608h422l-11 -74h-422l-86 -608h482l-8 -72h-553zM434 1600l33 231h72l-33 -231h-72zM711 1600l33 231h71l-32 -231h-72z" />
<glyph unicode="&#x402;" horiz-adv-x="1024" d="M240 1362l10 72h633l-11 -72h-280l-51 -365q59 23 119.5 39.5t103.5 16.5q59 0 109.5 -16.5t84 -52.5t48 -90t4.5 -128l-68 -479q-10 -74 -41 -128.5t-77 -90t-103 -52t-121 -16.5l8 72q98 0 172 51t90 164l68 479q14 113 -40 164t-144 51q-102 0 -222 -37l-131 -944h-71 l190 1362h-280z" />
<glyph unicode="&#x403;" horiz-adv-x="716" d="M109 0l200 1434h553l-10 -72h-481l-191 -1362h-71zM485 1620l383 246l39 -59l-387 -246z" />
<glyph unicode="&#x404;" horiz-adv-x="778" d="M150 297l118 840q10 82 44 141t82 98t108.5 58.5t126.5 19.5q133 0 270 -51l-12 -78q-143 57 -269 57q-102 0 -182 -58t-96 -187l-55 -383h422l-11 -74h-422l-53 -383q-10 -66 3.5 -112t42 -75.5t71.5 -44t94 -14.5q123 0 285 58l-10 -78q-74 -25 -144.5 -38t-140.5 -13 q-66 0 -121 19t-92 58t-54.5 98.5t-4.5 141.5z" />
<glyph unicode="&#x405;" horiz-adv-x="860" d="M113 31l10 75q76 -27 153.5 -41t155.5 -14q102 0 181 58.5t98 187.5l18 139q12 82 -7.5 129t-53 72t-75.5 32t-75 11q-43 4 -96 15.5t-97 44t-68 93t-9 164.5l20 140q10 82 44 141t82 98t108.5 58.5t126.5 19.5q68 0 135 -10t137 -29l-12 -76q-72 20 -139.5 31.5 t-131.5 11.5q-102 0 -182 -58t-96 -187l-21 -140q-12 -82 8.5 -129t55.5 -71.5t76 -32.5t73 -10q43 -4 96.5 -15.5t96.5 -44t66.5 -93t9.5 -165.5l-19 -139q-12 -82 -44.5 -141.5t-81 -98.5t-109 -58t-125.5 -19q-80 0 -158 13t-151 38z" />
<glyph unicode="&#x406;" horiz-adv-x="286" d="M106 0l201 1434h72l-201 -1434h-72z" />
<glyph unicode="&#x407;" horiz-adv-x="286" d="M106 0l201 1434h72l-201 -1434h-72zM192 1600l33 231h72l-33 -231h-72zM469 1600l33 231h71l-32 -231h-72z" />
<glyph unicode="&#x408;" horiz-adv-x="757" d="M53 31l10 78q140 -58 267 -58q104 0 183 58.5t97 187.5l160 1137h72l-160 -1137q-12 -82 -45 -141.5t-82 -98.5t-109.5 -58t-126.5 -19q-135 0 -266 51z" />
<glyph unicode="&#x409;" horiz-adv-x="1191" d="M51 0l8 72q27 0 46.5 11t25.5 38l264 1313h453l-74 -521h129q45 0 101.5 -10t102.5 -44t71.5 -96.5t11.5 -166.5l-39 -281q-12 -80 -46 -139t-84 -98t-112.5 -58.5t-132.5 -19.5h-201l191 1362h-311l-252 -1241q-14 -61 -55.5 -91t-96.5 -30zM655 72h129q53 0 102.5 14 t89.5 43t66.5 75t36.5 111l39 281q12 82 -8 131t-57 74.5t-81 33t-79 7.5h-129z" />
<glyph unicode="&#x40a;" horiz-adv-x="1187" d="M111 0l200 1434h72l-96 -680h389l96 680h72l-74 -521h129q47 0 103.5 -10t101.5 -44t70.5 -96.5t11.5 -166.5l-39 -281q-12 -80 -46 -139t-84 -98t-112.5 -58.5t-132.5 -19.5h-201l95 680h-390l-94 -680h-71zM651 72h129q53 0 102.5 14t89.5 43t66.5 75t36.5 111l39 281 q12 82 -8.5 131t-57 74.5t-80.5 33t-79 7.5h-129z" />
<glyph unicode="&#x40b;" horiz-adv-x="1024" d="M240 1362l10 72h633l-11 -72h-280l-51 -365q59 23 119.5 39.5t103.5 16.5q59 0 109.5 -16.5t84 -52.5t48 -90t4.5 -128l-107 -766h-72l107 766q14 113 -40 164t-144 51q-102 0 -222 -37l-131 -944h-71l190 1362h-280z" />
<glyph unicode="&#x40c;" horiz-adv-x="839" d="M109 0l200 1434h74l-96 -680h221l412 680h77l-434 -717l236 -717h-78l-223 680h-222l-94 -680h-73zM526 1620l383 246l39 -59l-387 -246z" />
<glyph unicode="&#x40d;" horiz-adv-x="839" d="M109 0l200 1434h72l-170 -1213q160 303 322.5 606t322.5 607h66l-201 -1434h-72l170 1212l-643 -1212h-67zM469 1807l53 59l320 -246l-58 -59z" />
<glyph unicode="&#x40e;" horiz-adv-x="860" d="M246 1434h76l118 -1108l488 1108h78l-582 -1317q-29 -59 -60.5 -88t-93.5 -29l9 72q31 0 47 12t26 41l27 59zM436 1831h72q-14 -96 31 -133t116 -37q74 0 129.5 36t69.5 134h72q-10 -68 -36 -113.5t-62.5 -73.5t-83 -40t-97.5 -12q-49 0 -92 12t-72.5 40t-43 74t-3.5 113 z" />
<glyph unicode="&#x40f;" horiz-adv-x="839" d="M109 0l200 1434h72l-193 -1362h469l193 1362h72l-201 -1434h-270l-58 -401h-71l57 401h-270z" />
<glyph unicode="&#x410;" horiz-adv-x="860" d="M45 0l545 1434h72l141 -1434h-78l-33 340h-442l-129 -340h-76zM276 412h408l-80 858z" />
<glyph unicode="&#x411;" horiz-adv-x="778" d="M109 0l200 1434h553l-10 -72h-481l-64 -449h209v2q45 -4 101.5 -16t102.5 -45t71.5 -93.5t11.5 -164.5l-39 -281q-12 -80 -46 -139t-84 -98t-112.5 -58.5t-132.5 -19.5h-280zM188 72h209q53 0 102.5 14t89.5 43t66.5 75t36.5 111l39 281q12 82 -8.5 130t-57 73.5 t-80.5 33t-79 11.5v-2h-209z" />
<glyph unicode="&#x412;" horiz-adv-x="839" d="M109 0l200 1434h281q70 0 127 -19.5t97 -58.5t57.5 -98.5t5.5 -139.5l-17 -121q-18 -127 -75.5 -189.5t-127.5 -90.5q31 -14 57.5 -36t44 -55.5t23.5 -80.5t-2 -109l-16 -121q-12 -80 -46 -139t-84 -98t-112.5 -58.5t-132.5 -19.5h-280zM188 72h209q55 0 104.5 14 t88.5 43t65.5 75t36.5 111l17 121q12 82 -8.5 130t-57.5 72t-81 31t-79 11h-209zM285 754h209q35 2 81 10t90 31.5t77.5 70.5t45.5 131l17 121q8 63 -5.5 110.5t-44 76t-75.5 43t-100 14.5h-209z" />
<glyph unicode="&#x413;" horiz-adv-x="716" d="M109 0l200 1434h553l-10 -72h-481l-191 -1362h-71z" />
<glyph unicode="&#x414;" horiz-adv-x="901" d="M-12 -301l49 373h57q27 0 46.5 11t25.5 38l264 1313h533l-193 -1362h100l-51 -373h-71l43 301h-691l-43 -301h-69zM217 72h481l183 1290h-392l-251 -1241q-4 -14 -9.5 -26.5t-11.5 -22.5z" />
<glyph unicode="&#x415;" horiz-adv-x="778" d="M109 0l200 1434h553l-10 -72h-481l-86 -608h422l-11 -74h-422l-86 -608h482l-8 -72h-553z" />
<glyph unicode="&#x416;" horiz-adv-x="1163" d="M43 0l434 717q-59 174 -116.5 358.5t-114.5 358.5h78l215 -680h104l96 680h74l-96 -680h102l410 680h78l-433 -717l234 -717h-78l-221 680h-102l-95 -680h-73l94 680h-105l-407 -680h-78z" />
<glyph unicode="&#x417;" horiz-adv-x="819" d="M111 18l10 76q72 -20 139.5 -31.5t130.5 -11.5q104 0 182 58.5t97 187.5l18 139q12 82 -9.5 129t-58 72t-80.5 31t-77 10l10 74q35 2 81 10t90 32.5t78 71.5t46 131l20 140q16 129 -45 187t-165 58q-63 0 -134 -11t-149 -32l12 76q72 18 142.5 28.5t138.5 10.5 q66 0 121 -19.5t93 -58.5t54 -98t6 -141l-16 -109q-12 -86 -44 -141.5t-75 -91t-91 -53t-93 -25.5q43 -6 88 -18.5t77.5 -42t49 -82t4.5 -138.5l-19 -139q-12 -82 -44.5 -141.5t-82 -98.5t-110 -58t-125.5 -19q-68 0 -135.5 10t-134.5 28z" />
<glyph unicode="&#x418;" horiz-adv-x="839" d="M109 0l200 1434h72l-170 -1213q160 303 322.5 606t322.5 607h66l-201 -1434h-72l170 1212l-643 -1212h-67z" />
<glyph unicode="&#x419;" horiz-adv-x="839" d="M109 0l200 1434h72l-170 -1213q160 303 322.5 606t322.5 607h66l-201 -1434h-72l170 1212l-643 -1212h-67zM426 1831h72q-14 -96 31 -133t116 -37q74 0 129.5 36t69.5 134h72q-10 -68 -36 -113.5t-62.5 -73.5t-83 -40t-97.5 -12q-49 0 -92 12t-72.5 40t-43 74t-3.5 113z " />
<glyph unicode="&#x41a;" horiz-adv-x="839" d="M109 0l200 1434h74l-96 -680h221l412 680h77l-434 -717l236 -717h-78l-223 680h-222l-94 -680h-73z" />
<glyph unicode="&#x41b;" horiz-adv-x="843" d="M49 0l8 72q27 0 46.5 11t25.5 38l264 1313h533l-201 -1434h-72l191 1362h-391l-252 -1241q-14 -61 -55.5 -91t-96.5 -30z" />
<glyph unicode="&#x41c;" horiz-adv-x="1095" d="M106 0l199 1427v7h78l225 -977l494 977h80l-6 -13l-199 -1421h-72l172 1227l-450 -887h-68l-209 895l-172 -1235h-72z" />
<glyph unicode="&#x41d;" horiz-adv-x="839" d="M109 0l200 1434h72l-96 -680h469l96 680h72l-201 -1434h-72l94 680h-469l-94 -680h-71z" />
<glyph unicode="&#x41e;" horiz-adv-x="860" d="M150 297l118 840q10 82 44 141t82 98t108.5 58.5t126.5 19.5t120 -19.5t92 -58.5t54 -98t6 -141l-119 -840q-12 -82 -44.5 -141.5t-81 -98.5t-109 -58t-125.5 -19q-66 0 -121 19t-92 58t-54.5 98.5t-4.5 141.5zM221 297q-10 -66 3.5 -112t42 -75.5t71.5 -44t94 -14.5 q102 0 181 58.5t98 187.5l118 840q16 129 -46 187t-165 58q-102 0 -182 -58t-96 -187z" />
<glyph unicode="&#x41f;" horiz-adv-x="839" d="M109 0l200 1434h613l-201 -1434h-72l191 1362h-469l-191 -1362h-71z" />
<glyph unicode="&#x420;" horiz-adv-x="778" d="M109 0l200 1434h281h12h21v-2q61 -4 113 -26t87 -60.5t49.5 -95t4.5 -132.5l-39 -280q-12 -96 -50 -154.5t-87.5 -93.5t-104.5 -49.5t-102 -20.5h-15q-6 -2 -18 -2v2h-209l-72 -520h-71zM262 592h232q37 4 79.5 14t81.5 36t70 72t41 124l39 280q8 63 -5.5 110.5t-44 76 t-75.5 43t-100 14.5h-209z" />
<glyph unicode="&#x421;" horiz-adv-x="778" d="M150 297l118 840q10 82 44 141t82 98t108.5 58.5t126.5 19.5q133 0 270 -51l-12 -78q-143 57 -269 57q-102 0 -182 -58t-96 -187l-119 -840q-10 -66 3.5 -112t42 -75.5t71.5 -44t94 -14.5q123 0 285 58l-10 -78q-74 -25 -144.5 -38t-140.5 -13q-66 0 -121 19t-92 58 t-54.5 98.5t-4.5 141.5z" />
<glyph unicode="&#x422;" horiz-adv-x="737" d="M240 1362l10 72h633l-11 -72h-280l-191 -1362h-71l190 1362h-280z" />
<glyph unicode="&#x423;" horiz-adv-x="860" d="M246 1434h76l118 -1108l488 1108h78l-582 -1317q-29 -59 -60.5 -88t-93.5 -29l9 72q31 0 47 12t26 41l27 59z" />
<glyph unicode="&#x424;" horiz-adv-x="1146" d="M190 578l39 278q12 82 46 141.5t85.5 98.5t114 58.5t131.5 19.5h88l37 260h74l-37 -260h88q70 0 127 -19.5t97 -58.5t57.5 -98.5t5.5 -141.5l-39 -278q-14 -104 -57 -165t-98.5 -93.5t-115 -45t-106.5 -16.5h-88l-35 -258h-74l35 258h-88q-45 4 -101.5 16.5t-102.5 45 t-71.5 93t-11.5 165.5zM262 578q-12 -84 9.5 -131.5t58.5 -73t80 -33.5t77 -10h88l109 772h-88q-53 0 -102.5 -14.5t-89 -44t-67.5 -75.5t-36 -112zM649 330h88q35 2 81 10t90 33.5t78 73t46 131.5l39 278q8 66 -5 112t-44 75.5t-77 44t-99 14.5h-88z" />
<glyph unicode="&#x425;" horiz-adv-x="860" d="M53 0l434 717l-235 717h78l207 -635l381 635h79l-434 -717l236 -717h-80l-205 633l-383 -633h-78z" />
<glyph unicode="&#x426;" horiz-adv-x="839" d="M111 0l200 1434h72l-193 -1362h467l193 1362h74l-193 -1362h100l-51 -373h-73l43 301h-639z" />
<glyph unicode="&#x427;" horiz-adv-x="778" d="M166 838l84 596h72l-84 -596q-12 -84 7 -132.5t53 -74t75 -32.5t73 -7q53 0 110.5 6t119.5 23l115 813h71l-200 -1434h-72l76 545q-117 -25 -230 -25q-45 0 -98 10.5t-96 44t-66.5 96t-9.5 167.5z" />
<glyph unicode="&#x428;" horiz-adv-x="1167" d="M111 0l200 1434h72l-193 -1362h359l192 1362h74l-192 -1362h358l193 1362h71l-201 -1434h-933z" />
<glyph unicode="&#x429;" horiz-adv-x="1167" d="M111 0l200 1434h74l-192 -1362h358l192 1362h72l-192 -1362h358l193 1362h71l-192 -1362h100l-51 -373h-72l43 301h-962z" />
<glyph unicode="&#x42a;" horiz-adv-x="880" d="M188 0l191 1362h-180l10 72h252l-74 -521h209q47 0 103.5 -10t101.5 -44t70.5 -96.5t11.5 -166.5l-39 -281q-12 -80 -46 -139t-84 -98t-112.5 -58.5t-132.5 -19.5h-281zM268 72h209q55 0 104.5 14t88.5 43t65.5 75t36.5 111l39 281q12 82 -8.5 131t-57 74.5t-80.5 33 t-79 7.5h-209z" />
<glyph unicode="&#x42b;" horiz-adv-x="1064" d="M111 0l200 1434h72l-74 -521h209q45 0 101.5 -10t102.5 -44t71.5 -96.5t11.5 -166.5l-39 -281q-12 -80 -46 -139t-84 -98t-112.5 -58.5t-132.5 -19.5h-280zM190 72h209q53 0 102.5 14t89.5 43t66.5 75t36.5 111l39 281q12 82 -8 131t-57 74.5t-81 33t-79 7.5h-209zM870 0 l201 1434h74l-201 -1434h-74z" />
<glyph unicode="&#x42c;" d="M109 0l200 1434h72l-74 -521h209q47 0 103.5 -10t101.5 -44t70.5 -96.5t11.5 -166.5l-39 -281q-12 -80 -46 -139t-84 -98t-112.5 -58.5t-132.5 -19.5h-280zM188 72h209q55 0 104.5 14t88.5 43t65.5 75t36.5 111l39 281q12 82 -8.5 131t-57 74.5t-80.5 33t-79 7.5h-209z " />
<glyph unicode="&#x42d;" horiz-adv-x="778" d="M72 31l10 78q143 -57 268 -58q104 0 183 58.5t98 187.5l53 383h-422l10 74h422l56 383q16 129 -46.5 187t-166.5 58q-123 0 -285 -57l12 78q150 51 283 51q66 0 121 -19.5t93 -58.5t54 -98t6 -141l-119 -840q-12 -82 -44.5 -141.5t-82 -98.5t-109.5 -58t-126 -19 q-70 0 -136.5 13t-131.5 38z" />
<glyph unicode="&#x42e;" horiz-adv-x="1146" d="M111 0l200 1434h72l-96 -680h209l55 383q10 82 43 141t81 98t108.5 58.5t125.5 19.5q66 0 121 -19.5t93 -58.5t54.5 -98t6.5 -141l-119 -840q-12 -82 -45 -141.5t-82 -98.5t-109.5 -58t-126.5 -19t-120 19t-91.5 58t-54 98.5t-4.5 141.5l53 383h-209l-94 -680h-71z M504 297q-10 -66 3 -112t42 -75.5t71 -44t93 -14.5q104 0 183 58.5t97 187.5l119 840q16 129 -46 187t-167 58q-51 0 -97 -14t-83 -44t-62.5 -77t-33.5 -110z" />
<glyph unicode="&#x42f;" horiz-adv-x="839" d="M61 0l324 537q-37 12 -70.5 33.5t-56 56.5t-33 87t-0.5 124l39 280q12 80 46 139.5t85 98.5t113.5 58.5t132.5 19.5h281l-201 -1434h-72l72 520h-209h-28.5t-30.5 2l-314 -522h-78zM297 838q-12 -84 9.5 -132.5t57 -74t79.5 -32.5t79 -7h209l109 770h-209 q-53 0 -102.5 -14.5t-89.5 -43t-67.5 -76t-35.5 -110.5z" />
<glyph unicode="&#x430;" d="M145 264h2l11 80q10 74 40.5 127t73.5 88t96.5 51.5t112.5 16.5h213l19 133q8 55 -3.5 95t-37 66.5t-61.5 39t-79 12.5q-47 0 -112.5 -14.5t-143.5 -40.5l13 75q150 51 256 51q55 0 103 -16t82 -52t49.5 -89t4.5 -127l-106 -760h-72l2 29q-59 -20 -118.5 -34.5 t-100.5 -14.5q-59 0 -108.5 16t-83 52t-48 89t-4.5 127zM217 264q-8 -55 3 -95t36 -66.5t61.5 -39t81.5 -12.5q96 0 217 35l68 469h-213q-90 0 -158.5 -50t-85.5 -161z" />
<glyph unicode="&#x431;" d="M147 264l136 973q10 74 40.5 127t73.5 88t96.5 51.5t112.5 16.5q41 0 107.5 14t144.5 41l-12 -76q-72 -25 -137.5 -38t-112.5 -13q-90 0 -158.5 -50t-85.5 -161l-35 -248q59 23 120 39t102 16q59 0 108 -16t83 -52t49.5 -89t4.5 -127l-69 -496q-23 -147 -115 -215.5 t-211 -68.5q-59 0 -107.5 16t-82 52t-48 89t-4.5 127zM217 264q-8 -55 3 -95t36 -66.5t61.5 -39t81.5 -12.5q90 0 159 51.5t85 161.5l70 496q8 55 -3.5 95t-37 66.5t-62.5 39t-82 12.5q-100 0 -217 -37z" />
<glyph unicode="&#x432;" horiz-adv-x="755" d="M111 0l143 1024h238q63 0 120.5 -17.5t97.5 -51t60.5 -87t9.5 -123.5q-16 -102 -69.5 -155t-114.5 -78q27 -12 51.5 -31.5t42 -48.5t24.5 -66.5t-1 -89.5q-10 -72 -44 -123t-84 -85.5t-111.5 -51t-125.5 -16.5h-237zM188 72h168q49 0 97.5 11t87.5 35.5t65.5 63.5 t34.5 92q10 68 -12.5 108t-59.5 59.5t-81 25.5t-74 10h-168zM256 547h168q33 2 77 9t87 26.5t77 58.5t44 107q8 53 -8.5 92t-49.5 63.5t-77 36.5t-93 12h-168z" />
<glyph unicode="&#x433;" horiz-adv-x="634" d="M109 0l143 1024h469l-10 -72h-398l-133 -952h-71z" />
<glyph unicode="&#x434;" horiz-adv-x="819" d="M-10 -297l49 369h55q27 0 46.5 11t25.5 36l209 905h446l-135 -952h98l-51 -369h-71l43 297h-603l-43 -297h-69zM219 72h395l125 880h-307l-194 -835q-8 -25 -19 -45z" />
<glyph unicode="&#x435;" d="M147 264l70 496q10 74 40 127t73 89t96 52t113 16q59 0 108 -16t83 -52t49.5 -89t4.5 -127l-41 -283h-497l-29 -213q-8 -55 3 -95t36 -66.5t61.5 -39t81.5 -12.5q41 0 107.5 14.5t144.5 40.5l-10 -75q-72 -25 -138.5 -38t-113.5 -13q-59 0 -107.5 16t-82 52t-48 89 t-4.5 127zM256 547h426l31 213q8 55 -3.5 95t-37 66.5t-62.5 39t-82 12.5q-90 0 -157.5 -51.5t-83.5 -161.5z" />
<glyph unicode="&#x436;" horiz-adv-x="1056" d="M63 0l314 512l-168 512h78l151 -477h123l68 477h71l-67 -477h121l286 477h78l-309 -512l168 -512h-78l-156 477h-120l-66 -477h-72l66 477h-123l-287 -477h-78z" />
<glyph unicode="&#x437;" horiz-adv-x="788" d="M115 31l10 75q68 -27 135.5 -41t128.5 -14q90 0 158.5 51.5t85.5 167.5q8 66 -7.5 106t-44 62.5t-65.5 30.5t-70 8h-22l10 70q35 4 76 12t78 29.5t64.5 60.5t37.5 105q16 117 -37 168t-145 51q-41 0 -107.5 -14.5t-144.5 -40.5l12 75q72 25 137.5 38t112.5 13 q59 0 108.5 -16t83 -52t48 -91.5t4.5 -130.5q-8 -59 -27.5 -100.5t-46 -69t-59.5 -44t-68 -24.5q33 -6 63.5 -22.5t51 -45t29 -71.5t0.5 -107q-10 -78 -41 -132t-74 -90t-97.5 -52t-113.5 -16q-133 0 -264 51z" />
<glyph unicode="&#x438;" d="M111 0l143 1024h70l-121 -852q137 213 276 426t277 426h65l-143 -1024h-72l119 852q-135 -213 -274.5 -426t-274.5 -426h-65z" />
<glyph unicode="&#x439;" d="M111 0l143 1024h70l-121 -852q137 213 276 426t277 426h65l-143 -1024h-72l119 852q-135 -213 -274.5 -426t-274.5 -426h-65zM348 1421h72q-14 -96 31 -133t116 -37q74 0 129.5 36t69.5 134h72q-10 -68 -36 -113.5t-62.5 -73.5t-83 -40t-97.5 -12q-49 0 -92 12t-72.5 40 t-43 74t-3.5 113z" />
<glyph unicode="&#x43a;" horiz-adv-x="753" d="M111 0l143 1024h70l-68 -477h203l286 477h78l-311 -512l170 -512h-78l-155 477h-203l-66 -477h-69z" />
<glyph unicode="&#x43b;" horiz-adv-x="802" d="M45 -20l10 71q29 0 47.5 11.5t22.5 35.5l213 926h485l-143 -1024h-70l133 952h-348l-198 -856q-12 -59 -54.5 -87.5t-97.5 -28.5z" />
<glyph unicode="&#x43c;" horiz-adv-x="1050" d="M106 0l144 1024h76l211 -907l458 907h80l-143 -1024h-72l115 829l-420 -829h-66l-196 838l-117 -838h-70z" />
<glyph unicode="&#x43d;" d="M111 0l143 1024h70l-68 -477h426l68 477h71l-143 -1024h-72l66 477h-426l-66 -477h-69z" />
<glyph unicode="&#x43e;" d="M147 264l70 496q10 74 40 127t73 89t96 52t113 16q59 0 108 -16t83 -52t49.5 -89t4.5 -127l-69 -496q-23 -147 -115 -215.5t-211 -68.5q-59 0 -107.5 16t-82 52t-48 89t-4.5 127zM217 264q-8 -55 3 -95t36 -66.5t61.5 -39t81.5 -12.5q90 0 159 51.5t85 161.5l70 496 q8 55 -3.5 95t-37 66.5t-62.5 39t-82 12.5q-90 0 -157.5 -51.5t-83.5 -161.5z" />
<glyph unicode="&#x43f;" d="M111 0l143 1024h567l-143 -1024h-72l133 952h-426l-133 -952h-69z" />
<glyph unicode="&#x440;" d="M39 -496l215 1520h70l-5 -29q55 20 110.5 34.5t109.5 14.5q59 0 108 -16t83 -52t49.5 -89t4.5 -127l-69 -496q-23 -147 -115 -215.5t-211 -68.5q-53 0 -104.5 14t-102.5 33l-73 -523h-70zM190 86q115 -35 209 -35q90 0 159 51.5t85 161.5l70 496q8 55 -3.5 95t-37 66.5 t-62.5 39t-82 12.5q-100 0 -217 -37z" />
<glyph unicode="&#x441;" horiz-adv-x="757" d="M145 264l70 496q20 147 112.5 215.5t211.5 68.5q47 0 109.5 -13t127.5 -38l-12 -75q-68 27 -131.5 41t-104.5 14q-90 0 -157.5 -51.5t-83.5 -161.5l-70 -496q-8 -55 3 -95t36 -66.5t61.5 -39t81.5 -12.5q41 0 107.5 14.5t144.5 40.5l-10 -75q-72 -25 -138.5 -38 t-113.5 -13q-59 0 -108.5 16t-83 52t-48 89t-4.5 127z" />
<glyph unicode="&#x442;" horiz-adv-x="737" d="M182 952l11 72h626l-10 -72h-277l-133 -952h-71l133 952h-279z" />
<glyph unicode="&#x443;" d="M51 -467l12 78q70 -27 137 -41t130 -14q90 0 158.5 51t84.5 162l37 264q-61 -23 -120.5 -38t-100.5 -15q-59 0 -107.5 16t-82 52t-48 89t-4.5 127l107 760h70l-107 -760q-8 -55 3 -95t36 -66.5t61.5 -39t81.5 -12.5q96 0 217 35l134 938h71l-176 -1255 q-23 -147 -115 -216t-211 -69q-68 0 -135 13.5t-133 35.5z" />
<glyph unicode="&#x444;" horiz-adv-x="1064" d="M156 313l55 398q12 80 46 139t84 98t112.5 57.5t130.5 18.5h49l69 496h72l-69 -496h47q68 0 125 -18.5t97 -57.5t57.5 -98t4.5 -139l-55 -398q-14 -102 -57 -164.5t-97.5 -95.5t-114 -43t-104.5 -10h-47l-72 -496h-71l71 496h-49q-47 0 -102 10t-100 43t-71 95.5 t-11 164.5zM225 313q-12 -82 9.5 -130t57.5 -72.5t79 -31.5t78 -7h49l125 880h-50q-53 0 -102 -14t-88 -43t-66.5 -75t-35.5 -109zM569 72h47q33 0 79 7t90 31.5t78 72.5t46 130l56 398q8 63 -5.5 109t-44 75t-75.5 43t-99 14h-47z" />
<glyph unicode="&#x445;" horiz-adv-x="729" d="M37 0l352 512l-209 512h82l178 -438l301 438h80l-352 -512l211 -512h-80l-180 438l-301 -438h-82z" />
<glyph unicode="&#x446;" d="M111 0l143 1024h72l-136 -952h424l136 952h71l-135 -952h100l-51 -369h-71l43 297h-596z" />
<glyph unicode="&#x447;" d="M199 641l55 383h70l-56 -383q-8 -55 3.5 -95t37 -66.5t62.5 -39t82 -12.5q90 0 159.5 55.5t85.5 173.5l52 367h71l-143 -1024h-72l64 455q-84 -98 -228 -99q-59 0 -107 16.5t-82 52.5t-49.5 89t-4.5 127z" />
<glyph unicode="&#x448;" horiz-adv-x="1085" d="M113 0l143 1024h72l-135 -952h315l135 952h70l-135 -952h317l135 952h70l-144 -1024h-843z" />
<glyph unicode="&#x449;" horiz-adv-x="1085" d="M113 0l143 1024h72l-135 -952h315l135 952h72l-135 -952h315l135 952h72l-135 -952h98l-51 -369h-72l43 297h-872z" />
<glyph unicode="&#x44a;" d="M143 952l11 72h249l-45 -317h127q45 0 102.5 -4.5t103.5 -30t73 -80.5t12 -160l-22 -158q-12 -82 -45 -135t-82 -83.5t-110.5 -43t-129.5 -12.5h-199l134 952h-179zM268 72h127q53 0 101.5 8t87.5 29.5t64.5 61.5t33.5 103l23 158q10 76 -7.5 118t-49.5 60.5t-70.5 21.5 t-71.5 3h-158z" />
<glyph unicode="&#x44b;" horiz-adv-x="962" d="M111 0l143 1024h72l-45 -317h127q45 0 102 -4.5t103 -30t73 -80.5t12 -160l-22 -158q-12 -82 -45 -135t-82 -83.5t-110.5 -43t-129.5 -12.5h-198zM190 72h127q53 0 101.5 8t87.5 29.5t64.5 61.5t33.5 103l23 158q10 76 -7.5 118t-49 60.5t-70.5 21.5t-72 3h-158zM766 0 l143 1024h72l-143 -1024h-72z" />
<glyph unicode="&#x44c;" horiz-adv-x="716" d="M109 0l143 1024h72l-45 -317h127q45 0 102 -4.5t103 -30t73 -80.5t12 -160l-22 -158q-12 -82 -45 -135t-82 -83.5t-110.5 -43t-129.5 -12.5h-198zM188 72h127q53 0 101.5 8t87.5 29.5t64.5 61.5t33.5 103l23 158q10 76 -7.5 118t-49 60.5t-70.5 21.5t-72 3h-158z" />
<glyph unicode="&#x44d;" horiz-adv-x="757" d="M113 31l10 75q70 -27 132 -41t105 -14q90 0 158 51.5t84 161.5l29 213h-377l10 70h377l31 213q8 55 -3.5 95t-36 66.5t-61.5 39t-82 12.5q-43 0 -109.5 -14.5t-143.5 -40.5l12 75q72 25 138.5 38t113.5 13q57 0 106 -16t83 -52t49.5 -89t4.5 -127l-69 -496 q-10 -74 -41 -127t-74 -89t-97 -52t-112 -16q-47 0 -109.5 13t-127.5 38z" />
<glyph unicode="&#x44e;" horiz-adv-x="1054" d="M113 0l143 1024h70l-68 -477h178l31 213q10 74 40 127t73 89t96 52t112 16t108.5 -16t83.5 -52t49 -89t5 -127l-69 -496q-23 -147 -115 -215.5t-211 -68.5q-59 0 -107.5 16t-82 52t-48 89t-4.5 127l29 213h-178l-66 -477h-69zM469 264q-8 -55 2 -95t34.5 -66.5t61.5 -39 t82 -12.5q90 0 159 51.5t85 161.5l70 496q8 55 -3.5 95t-37 66.5t-62.5 39t-82 12.5q-90 0 -156.5 -51.5t-82.5 -161.5z" />
<glyph unicode="&#x44f;" horiz-adv-x="800" d="M156 0l194 326q-37 6 -69.5 22.5t-56 47t-33 77.5t1.5 119l22 158q12 82 45 135t82 83.5t110.5 43t129.5 12.5h239l-143 -1024h-72l43 317h-168q-14 0 -28.5 -1t-30.5 1l-189 -317h-77zM262 592q-10 -78 7.5 -119t49 -59.5t71.5 -21.5t73 -3h29h167l80 563h-168 q-53 0 -101 -8t-86 -29.5t-64.5 -61.5t-34.5 -103z" />
<glyph unicode="&#x450;" d="M147 264l70 496q10 74 40 127t73 89t96 52t113 16q59 0 108 -16t83 -52t49.5 -89t4.5 -127l-41 -283h-497l-29 -213q-8 -55 3 -95t36 -66.5t61.5 -39t81.5 -12.5q41 0 107.5 14.5t144.5 40.5l-10 -75q-72 -25 -138.5 -38t-113.5 -13q-59 0 -107.5 16t-82 52t-48 89 t-4.5 127zM256 547h426l31 213q8 55 -3.5 95t-37 66.5t-62.5 39t-82 12.5q-90 0 -157.5 -51.5t-83.5 -161.5zM391 1397l53 59l320 -246l-58 -59z" />
<glyph unicode="&#x451;" d="M147 264l70 496q10 74 40 127t73 89t96 52t113 16q59 0 108 -16t83 -52t49.5 -89t4.5 -127l-41 -283h-497l-29 -213q-8 -55 3 -95t36 -66.5t61.5 -39t81.5 -12.5q41 0 107.5 14.5t144.5 40.5l-10 -75q-72 -25 -138.5 -38t-113.5 -13q-59 0 -107.5 16t-82 52t-48 89 t-4.5 127zM256 547h426l31 213q8 55 -3.5 95t-37 66.5t-62.5 39t-82 12.5q-90 0 -157.5 -51.5t-83.5 -161.5zM387 1190l33 231h72l-33 -231h-72zM664 1190l33 231h71l-32 -231h-72z" />
<glyph unicode="&#x452;" horiz-adv-x="1024" d="M240 1350l10 71h278l15 99h71l-14 -99h277l-11 -71h-276l-51 -361q59 23 118.5 39t100.5 16q59 0 108 -16t83 -52t49.5 -89t5.5 -127l-68 -475q-20 -147 -116.5 -216t-221.5 -69l8 72q96 0 169 51t89 162l68 475q8 55 -3 95t-37 66.5t-62.5 39t-81.5 12.5q-98 0 -216 -35 l-131 -938h-71l188 1350h-278z" />
<glyph unicode="&#x453;" horiz-adv-x="634" d="M109 0l143 1024h469l-10 -72h-398l-133 -952h-71zM366 1210l383 246l39 -59l-387 -246z" />
<glyph unicode="&#x454;" horiz-adv-x="757" d="M145 264l70 496q20 147 112.5 215.5t211.5 68.5q47 0 109.5 -13t127.5 -38l-12 -75q-68 27 -131.5 41t-104.5 14q-90 0 -157.5 -51.5t-83.5 -161.5l-31 -213h377l-10 -70h-377l-29 -213q-8 -55 3 -95t36 -66.5t61.5 -39t81.5 -12.5q41 0 107.5 14.5t144.5 40.5l-10 -75 q-72 -25 -138.5 -38t-113.5 -13q-59 0 -108.5 16t-83 52t-48 89t-4.5 127z" />
<glyph unicode="&#x455;" d="M123 31l10 75q70 -27 136.5 -41t129.5 -14q90 0 159 51.5t85 167.5q8 66 -7 105t-44 60.5t-66 29.5t-69 12q-43 4 -91.5 14.5t-86 40t-57 82t-7.5 140.5q10 76 41 131t74 91t96 52t113 16q47 0 109.5 -13t127.5 -38l-12 -75q-68 27 -131.5 41t-104.5 14 q-90 0 -158.5 -52.5t-84.5 -166.5q-10 -66 6 -105t45 -60.5t65.5 -30.5t69.5 -11q43 -4 91 -14.5t86 -40t58.5 -82t8.5 -140.5q-10 -78 -41 -132t-74 -90t-97 -52t-114 -16q-68 0 -134.5 13t-131.5 38z" />
<glyph unicode="&#x456;" horiz-adv-x="286" d="M106 0l144 1024h72l-144 -1024h-72zM272 1190l33 231h72l-33 -231h-72z" />
<glyph unicode="&#x457;" horiz-adv-x="286" d="M106 0l144 1024h72l-144 -1024h-72zM172 1190l33 231h71l-32 -231h-72zM371 1190l32 231h72l-33 -231h-71z" />
<glyph unicode="&#x458;" horiz-adv-x="286" d="M-197 -516l11 72q96 0 168.5 51t89.5 162l176 1255h71l-176 -1255q-23 -147 -118 -216t-222 -69zM270 1190l33 231h72l-33 -231h-72z" />
<glyph unicode="&#x459;" horiz-adv-x="1191" d="M53 0l8 72q27 0 46.5 11t25.5 36l209 905h446l-45 -317h127q45 0 101.5 -10.5t101.5 -43t70.5 -95t11.5 -165.5l-10 -80q-12 -80 -46 -139t-84 -98t-112.5 -57.5t-130.5 -18.5h-199l134 952h-308l-194 -835q-14 -61 -55 -89t-97 -28zM653 72h127q53 0 102.5 14t88.5 43 t65.5 75t36.5 109l10 80q12 82 -9 130t-57 73t-80 32t-77 7h-127z" />
<glyph unicode="&#x45a;" horiz-adv-x="1187" d="M113 0l143 1024h72l-68 -477h385l68 477h71l-45 -317h127q45 0 102.5 -4.5t103.5 -30t72.5 -80.5t12.5 -160l-22 -158q-10 -78 -41 -129t-75 -82.5t-100.5 -46t-119.5 -16.5h-4h-27h-199l66 477h-385l-66 -477h-71zM649 72h127q53 0 101.5 8t87.5 29.5t64.5 61.5 t33.5 103l22 158q10 76 -7 118t-49 60.5t-71.5 21.5t-72.5 3h-156z" />
<glyph unicode="&#x45b;" horiz-adv-x="1024" d="M240 1350l10 71h278l15 99h71l-14 -99h277l-11 -71h-276l-60 -426q76 121 228 120q59 0 108 -16t83 -52t49.5 -89t5.5 -127l-107 -760h-72l107 760q8 55 -3 95t-37 66.5t-62.5 39t-81.5 12.5q-88 0 -156 -53.5t-86 -165.5l-105 -754h-71l188 1350h-278z" />
<glyph unicode="&#x45c;" horiz-adv-x="753" d="M111 0l143 1024h70l-68 -477h203l286 477h78l-311 -512l170 -512h-78l-155 477h-203l-66 -477h-69zM426 1210l383 246l39 -59l-387 -246z" />
<glyph unicode="&#x45d;" d="M111 0l143 1024h70l-121 -852q137 213 276 426t277 426h65l-143 -1024h-72l119 852q-135 -213 -274.5 -426t-274.5 -426h-65zM301 1397l53 59l320 -246l-58 -59z" />
<glyph unicode="&#x45e;" d="M51 -467l12 78q70 -27 137 -41t130 -14q90 0 158.5 51t84.5 162l37 264q-61 -23 -120.5 -38t-100.5 -15q-59 0 -107.5 16t-82 52t-48 89t-4.5 127l107 760h70l-107 -760q-8 -55 3 -95t36 -66.5t61.5 -39t81.5 -12.5q96 0 217 35l134 938h71l-176 -1255 q-23 -147 -115 -216t-211 -69q-68 0 -135 13.5t-133 35.5zM348 1421h72q-14 -96 31 -133t116 -37q74 0 129.5 36t69.5 134h72q-10 -68 -36 -113.5t-62.5 -73.5t-83 -40t-97.5 -12q-49 0 -92 12t-72.5 40t-43 74t-3.5 113z" />
<glyph unicode="&#x45f;" d="M111 0l143 1024h70l-136 -952h426l136 952h71l-143 -1024h-248l-57 -397h-72l57 397h-247z" />
<glyph unicode="&#x462;" horiz-adv-x="1064" d="M240 1362l10 72h633l-11 -72h-280l-64 -449h209q47 0 103.5 -10t101.5 -44t70.5 -96.5t11.5 -166.5l-39 -281q-12 -80 -46 -139t-84 -98t-112.5 -58.5t-132.5 -19.5h-280l190 1362h-280zM410 72h208q53 0 102.5 14t89.5 43t66.5 75t36.5 111l39 281q12 82 -8 131 t-57 74.5t-81 33t-79 7.5h-209z" />
<glyph unicode="&#x463;" horiz-adv-x="983" d="M240 1350l10 71h278l15 99h71l-14 -99h277l-11 -71h-276l-90 -643h127q45 0 102 -4.5t103.5 -30t72 -80.5t10.5 -160l-22 -158q-12 -82 -45 -135t-81 -83.5t-109.5 -43t-129.5 -12.5h-198l188 1350h-278zM410 72h127q53 0 101 8t86 29.5t63.5 61.5t33.5 103l23 158 q10 76 -7.5 118t-49 60.5t-70.5 21.5t-72 3h-156z" />
<glyph unicode="&#x490;" horiz-adv-x="716" d="M109 0l200 1434h482l43 301h71l-53 -373h-481l-191 -1362h-71z" />
<glyph unicode="&#x491;" horiz-adv-x="634" d="M109 0l143 1024h397l41 297h72l-51 -369h-398l-133 -952h-71z" />
<glyph unicode="&#x4d9;" d="M147 264l39 283h496l31 213q8 55 -3.5 95t-37 66.5t-62.5 39t-82 12.5q-41 0 -107.5 -14.5t-144.5 -40.5l13 75q72 25 137.5 38t112.5 13q59 0 108 -16t83 -52t49.5 -89t4.5 -127l-69 -496q-23 -147 -115 -215.5t-211 -68.5q-59 0 -107.5 16t-82 52t-48 89t-4.5 127z M217 264q-8 -55 3 -95t36 -66.5t61.5 -39t81.5 -12.5q90 0 159 51.5t85 161.5l29 213h-426z" />
<glyph unicode="&#x2000;" horiz-adv-x="935" />
<glyph unicode="&#x2001;" horiz-adv-x="1870" />
<glyph unicode="&#x2002;" horiz-adv-x="935" />
<glyph unicode="&#x2003;" horiz-adv-x="1870" />
<glyph unicode="&#x2004;" horiz-adv-x="623" />
<glyph unicode="&#x2005;" horiz-adv-x="467" />
<glyph unicode="&#x2006;" horiz-adv-x="311" />
<glyph unicode="&#x2007;" horiz-adv-x="311" />
<glyph unicode="&#x2008;" horiz-adv-x="233" />
<glyph unicode="&#x2009;" horiz-adv-x="374" />
<glyph unicode="&#x200a;" horiz-adv-x="103" />
<glyph unicode="&#x2010;" horiz-adv-x="757" d="M190 674v71h529v-71h-529z" />
<glyph unicode="&#x2011;" horiz-adv-x="757" d="M190 674v71h529v-71h-529z" />
<glyph unicode="&#x2012;" horiz-adv-x="757" d="M190 674v71h529v-71h-529z" />
<glyph unicode="&#x2013;" horiz-adv-x="962" d="M193 674v71h727v-71h-727z" />
<glyph unicode="&#x2014;" horiz-adv-x="1167" d="M195 674v71h925v-71h-925z" />
<glyph unicode="&#x2018;" horiz-adv-x="335" d="M242 973l24 174q10 70 33 137.5t55 136.5h78q-35 -68 -57.5 -134t-34.5 -124h39l-27 -190h-110z" />
<glyph unicode="&#x2019;" horiz-adv-x="335" d="M233 973q35 66 58.5 133.5t34.5 124.5h-39l26 190h111l-25 -174q-10 -70 -32.5 -138.5t-55.5 -135.5h-78z" />
<glyph unicode="&#x201a;" horiz-adv-x="327" d="M53 -258q35 68 57.5 134.5t34.5 123.5h-39l27 190h111l-25 -174q-10 -70 -32.5 -137t-55.5 -137h-78z" />
<glyph unicode="&#x201c;" horiz-adv-x="540" d="M242 973l24 174q10 70 33 137.5t55 136.5h78q-35 -68 -57.5 -134t-34.5 -124h39l-27 -190h-110zM447 973l24 174q10 70 33 137.5t55 136.5h78q-35 -68 -57.5 -134t-34.5 -124h39l-27 -190h-110z" />
<glyph unicode="&#x201d;" horiz-adv-x="542" d="M233 973q35 66 58.5 133.5t34.5 124.5h-39l26 190h111l-25 -174q-10 -70 -32.5 -138.5t-55.5 -135.5h-78zM440 973q35 66 58.5 133.5t34.5 124.5h-39l26 190h111l-25 -174q-10 -70 -32.5 -138.5t-55.5 -135.5h-78z" />
<glyph unicode="&#x201e;" horiz-adv-x="540" d="M63 -258q35 68 57.5 134.5t35.5 123.5h-41l26 190h113l-25 -174q-20 -133 -90 -274h-76zM262 -258q35 68 57.5 134.5t34.5 123.5h-41l27 190h113l-25 -174q-20 -133 -90 -274h-76z" />
<glyph unicode="&#x2022;" horiz-adv-x="532" d="M190 711q0 66 44.5 109.5t109.5 43.5q66 0 111 -44t45 -109q0 -66 -45 -111t-111 -45t-110 45t-44 111z" />
<glyph unicode="&#x2026;" horiz-adv-x="901" d="M111 0l26 190h111l-27 -190h-110zM389 0l27 190h110l-26 -190h-111zM666 0l26 190h113l-27 -190h-112z" />
<glyph unicode="&#x202f;" horiz-adv-x="374" />
<glyph unicode="&#x2030;" horiz-adv-x="1351" d="M111 10l870 1434l55 -31l-870 -1438zM215 860l57 416q12 84 65.5 124t121.5 40t111.5 -40t31.5 -124l-57 -416q-12 -88 -67.5 -127t-123.5 -39t-109.5 39t-29.5 127zM287 860q-8 -47 15.5 -70.5t62.5 -23.5q41 0 70.5 23.5t37.5 70.5l57 416q6 47 -16 70.5t-63 23.5 q-39 0 -70 -23.5t-37 -70.5zM549 145l59 416q12 84 65.5 125t123.5 41q66 0 109.5 -41t31.5 -125l-59 -416q-10 -86 -65.5 -125.5t-121.5 -39.5q-70 0 -111.5 39.5t-31.5 125.5zM621 145q-6 -47 17.5 -70.5t63.5 -23.5q39 0 69 23.5t36 70.5l59 416q6 47 -17.5 70.5 t-62.5 23.5q-41 0 -70.5 -23.5t-35.5 -70.5zM926 145l59 416q12 84 65.5 125t123.5 41q66 0 109.5 -41t31.5 -125l-60 -416q-10 -86 -65 -125.5t-121 -39.5q-70 0 -112 39.5t-31 125.5zM997 145q-6 -47 17.5 -70.5t64.5 -23.5q39 0 69 23.5t36 70.5l59 416q6 47 -17.5 70.5 t-62.5 23.5q-41 0 -70.5 -23.5t-35.5 -70.5z" />
<glyph unicode="&#x2039;" horiz-adv-x="636" d="M199 711l428 374l43 -51l-369 -323l279 -324l-58 -51z" />
<glyph unicode="&#x203a;" horiz-adv-x="636" d="M154 387l368 324l-278 323l59 51l322 -374l-426 -375z" />
<glyph unicode="&#x2044;" horiz-adv-x="835" d="M47 10l871 1434l55 -31l-871 -1438z" />
<glyph unicode="&#x205f;" horiz-adv-x="467" />
<glyph unicode="&#x20ac;" horiz-adv-x="827" d="M125 537l10 71h107l28 205h-106l10 72h107l34 241q12 80 45 139.5t80 98.5t106.5 57.5t125.5 18.5q135 0 268 -49l-10 -78q-72 29 -137.5 43t-128.5 14q-102 0 -180 -57.5t-97 -186.5l-35 -241h348l-10 -72h-348l-29 -205h349l-11 -71h-348l-33 -244 q-18 -127 43.5 -184.5t163.5 -57.5q63 0 134 14.5t149 40.5l-10 -75q-74 -25 -143.5 -38t-139.5 -13q-66 0 -120 19t-91 57t-53.5 97.5t-3.5 139.5l32 244h-106z" />
<glyph unicode="&#x2122;" horiz-adv-x="946" d="M299 1350l10 71h309l-10 -71h-119l-49 -359h-71l49 359h-119zM588 991l57 414l-4 16h78l72 -313l157 313h78l-8 -16l-57 -414h-72l31 223l-115 -223h-64l-51 219l-31 -219h-71z" />
<glyph unicode="&#xe000;" horiz-adv-x="1024" d="M0 0v1024h1024v-1024h-1024z" />
</font>
</defs>
</svg>
