<svg width="231" height="40" viewBox="0 0 231 40" fill="none" xmlns="http://www.w3.org/2000/svg">
<path d="M39 20C39 30.4934 30.4934 39 20 39C9.50659 39 1 30.4934 1 20C1 9.50659 9.50659 1 20 1C30.4934 1 39 9.50659 39 20Z" stroke="#56B8AD" stroke-width="2"/>
<path fill-rule="evenodd" clip-rule="evenodd" d="M16 20V30H22.6667L26 26.6667V16.6667H19.3333V13.3333H26L22.6667 10H16V16.6667L19.3333 20H22.6667V26.6667H19.3333V20H16Z" fill="#FFFFFF"/>
<path d="M63.22 15.56C61.9 15.56 60.92 15.98 60.3 16.8H59.82V11.46H57.56V26H59.74V25.02H60.22C60.88 25.84 61.88 26.26 63.22 26.26C64.56 26.26 65.64 25.76 66.42 24.76C67.22 23.76 67.62 22.48 67.62 20.9C67.62 19.34 67.22 18.06 66.42 17.06C65.64 16.06 64.56 15.56 63.22 15.56ZM62.58 24.34C60.72 24.34 59.76 22.84 59.76 20.9C59.76 18.96 60.72 17.48 62.58 17.48C64.36 17.48 65.36 18.84 65.36 20.9C65.36 22.96 64.36 24.34 62.58 24.34ZM72.4581 11.46H70.1381V13.64H72.4581V11.46ZM70.1581 15.82V26H72.4181V15.82H70.1581ZM85.0073 19.64C85.0073 17.08 83.6873 15.56 81.2273 15.56C79.9073 15.56 78.9473 15.98 78.3273 16.8H77.8473V11.46H75.5873V26H77.8473V20.56C77.8473 19.74 78.0873 19.04 78.5673 18.46C79.0673 17.88 79.7073 17.58 80.4873 17.58C81.9873 17.58 82.7473 18.42 82.7473 20.08V26H85.0073V19.64ZM87.8497 22.18C87.8497 24.74 89.1897 26.26 91.6697 26.26C93.0097 26.26 93.9897 25.84 94.6097 25.02H95.0897V26H97.2697V15.82H95.0097V21.26C95.0097 22.08 94.7697 22.78 94.2697 23.36C93.7897 23.94 93.1497 24.24 92.3697 24.24C90.8697 24.24 90.1097 23.4 90.1097 21.74V15.82H87.8497V22.18ZM108.352 18.54C108.132 16.72 106.592 15.56 104.172 15.56C101.432 15.56 99.992 16.84 99.992 18.66C99.992 20.18 100.992 21.08 102.592 21.34L104.712 21.7C105.892 21.92 106.372 22.28 106.372 23.06C106.372 23.94 105.652 24.38 104.232 24.38C102.832 24.38 102.052 23.9 101.872 22.92H99.612C99.832 25 101.392 26.26 104.272 26.26C105.652 26.26 106.712 25.94 107.472 25.32C108.252 24.68 108.632 23.9 108.632 23C108.632 21.22 107.592 20.18 105.532 19.84L103.552 19.52C102.652 19.36 102.252 19.12 102.252 18.5C102.252 17.8 102.872 17.44 104.092 17.44C105.312 17.44 105.972 17.8 106.092 18.54H108.352ZM113.497 23.32H110.917V26H113.497V23.32ZM131.551 15.82H123.411V18.68C123.411 20.62 123.051 22.42 122.351 24.08H120.911V28.86H123.071V26H131.231V28.86H133.391V24.08H131.551V15.82ZM124.551 24.08C125.171 22.52 125.471 20.72 125.471 18.7V17.74H129.291V24.08H124.551ZM144.63 20.34C144.61 18.96 144.17 17.82 143.33 16.92C142.51 16.02 141.35 15.56 139.89 15.56C138.35 15.56 137.11 16.04 136.21 17C135.31 17.94 134.87 19.22 134.87 20.84C134.87 22.46 135.33 23.76 136.23 24.76C137.13 25.76 138.37 26.26 139.95 26.26C142.51 26.26 144.09 24.98 144.49 23.04H142.19C141.89 23.9 141.15 24.34 139.97 24.34C138.13 24.34 137.17 23.26 137.11 21.1H144.63V20.34ZM139.87 17.36C141.29 17.36 142.15 18.22 142.31 19.42H137.21C137.47 18.16 138.37 17.36 139.87 17.36ZM156.55 26L153.91 20.72L156.41 15.82H154.09L152.05 19.82H149.39V15.82H147.13V26H149.39V21.74H152.01L154.17 26H156.55ZM158.109 26C159.529 26 160.549 25.56 161.169 24.66C161.809 23.76 162.129 22.2 162.129 20V17.74H166.029V26H168.289V15.82H160.049V19.94C160.049 22.9 159.489 23.86 158.109 23.86H157.749V26H158.109ZM179.868 26V19.24C179.868 16.78 178.208 15.56 175.468 15.56C173.048 15.56 171.368 16.74 171.268 18.64H173.508C173.608 17.78 174.288 17.34 175.548 17.34C176.988 17.34 177.688 18.02 177.688 19.2V19.5H174.688C173.328 19.5 172.308 19.84 171.648 20.52C170.988 21.2 170.648 22 170.648 22.92C170.648 23.86 170.968 24.64 171.628 25.3C172.288 25.94 173.168 26.26 174.288 26.26C175.668 26.26 176.668 25.86 177.288 25.06H177.768V26H179.868ZM174.988 24.42C173.688 24.42 172.928 23.82 172.928 22.78C172.928 21.72 173.668 21.1 175.088 21.1H177.688V21.88C177.688 22.58 177.428 23.18 176.908 23.68C176.388 24.18 175.748 24.42 174.988 24.42ZM187.873 17.48C189.653 17.48 190.653 18.84 190.653 20.9C190.653 22.96 189.653 24.34 187.873 24.34C186.013 24.34 185.053 22.84 185.053 20.9C185.053 18.96 186.013 17.48 187.873 17.48ZM182.853 30H185.113V25.02H185.593C186.213 25.84 187.193 26.26 188.513 26.26C189.853 26.26 190.933 25.76 191.713 24.76C192.513 23.76 192.913 22.48 192.913 20.9C192.913 19.34 192.513 18.06 191.713 17.06C190.933 16.06 189.853 15.56 188.513 15.56C187.173 15.56 186.173 15.98 185.513 16.8H185.033V15.82H182.853V30ZM203.891 26V19.24C203.891 16.78 202.231 15.56 199.491 15.56C197.071 15.56 195.391 16.74 195.291 18.64H197.531C197.631 17.78 198.311 17.34 199.571 17.34C201.011 17.34 201.711 18.02 201.711 19.2V19.5H198.711C197.351 19.5 196.331 19.84 195.671 20.52C195.011 21.2 194.671 22 194.671 22.92C194.671 23.86 194.991 24.64 195.651 25.3C196.311 25.94 197.191 26.26 198.311 26.26C199.691 26.26 200.691 25.86 201.311 25.06H201.791V26H203.891ZM199.011 24.42C197.711 24.42 196.951 23.82 196.951 22.78C196.951 21.72 197.691 21.1 199.111 21.1H201.711V21.88C201.711 22.58 201.451 23.18 200.931 23.68C200.411 24.18 199.771 24.42 199.011 24.42ZM213.896 24.08H209.136V15.82H206.876V26H215.836V28.86H217.976V24.08H216.156V15.82H213.896V24.08ZM222.38 11.46H220.06V13.64H222.38V11.46ZM220.08 15.82V26H222.34V15.82H220.08ZM230.565 11.46H228.565V13.64H230.565V11.46ZM226.785 11.46H224.765V13.64H226.785V11.46ZM226.525 15.82V26H228.785V15.82H226.525Z" fill="#FFFFFF"/>
</svg>
