<svg x="0px" y="0px" viewBox="0 0 24 24" fill="none" xmlns="http://www.w3.org/2000/svg">
<style type="text/css">
	.st0{fill-rule:evenodd;clip-rule:evenodd;fill:#56B8AD;}
</style>
<path class="st0" d="M2.7,0C1.2,0,0,1.2,0,2.7v18.6C0,22.8,1.2,24,2.7,24h18.6c1.5,0,2.7-1.2,2.7-2.7V2.7C24,1.2,22.8,0,21.3,0H2.7z
	 M9.3,9.1c0,0.8,0.8,1.4,3.1,1.9c2.4,0.5,4.9,1.4,4.9,3.9c0,1.8-1.6,2.8-3.7,3.1V20h-3.1V18c-2-0.4-3.7-1.5-3.8-3.4H9
	c0.1,1,1,1.9,3.1,1.9c2.3,0,2.8-1,2.8-1.6c0-0.8-0.5-1.6-3.1-2.1c-2.9-0.6-4.9-1.6-4.9-3.7c0-1.7,1.6-2.8,3.7-3.2V4h3.1V6
	c2.2,0.5,3.3,1.9,3.3,3.4h-2.3c-0.1-1.1-0.8-1.9-2.6-1.9C10.3,7.5,9.3,8.2,9.3,9.1z"/>
</svg>
