<svg width="14" height="14" viewBox="0 0 14 14" fill="none" xmlns="http://www.w3.org/2000/svg">
    <path d="M1.66768 1.67821L9.00018 0.631129C9.04156 0.625193 9.08374 0.628222 9.12385 0.640011C9.16396 0.6518 9.20106 0.672073 9.23265 0.699457C9.26424 0.72684 9.28957 0.760695 9.30693 0.798725C9.32429 0.836756 9.33327 0.878074 9.33327 0.919879V13.08C9.33326 13.1218 9.32429 13.1631 9.30697 13.201C9.28964 13.239 9.26436 13.2728 9.23284 13.3002C9.20132 13.3276 9.16429 13.3479 9.12425 13.3597C9.08421 13.3715 9.0421 13.3746 9.00077 13.3688L1.6671 12.3217C1.52804 12.3019 1.4008 12.2326 1.30875 12.1265C1.2167 12.0204 1.16602 11.8847 1.16602 11.7442V2.25571C1.16602 2.11525 1.2167 1.97951 1.30875 1.87342C1.4008 1.76733 1.52804 1.69802 1.6671 1.67821H1.66768ZM9.9166 1.74996H12.2499C12.4046 1.74996 12.553 1.81142 12.6624 1.92082C12.7718 2.03021 12.8333 2.17859 12.8333 2.3333V11.6666C12.8333 11.8213 12.7718 11.9697 12.6624 12.0791C12.553 12.1885 12.4046 12.25 12.2499 12.25H9.9166V1.74996ZM5.94993 6.99996L7.58327 4.66663H6.18327L5.24993 6.00013L4.3166 4.66663H2.9166L4.54993 6.99996L2.9166 9.3333H4.3166L5.24993 7.9998L6.18327 9.3333H7.58327L5.94993 6.99996Z" fill="#D9DCE0"/>
</svg>
