<svg width="16" height="16" viewBox="0 0 16 16" fill="none" xmlns="http://www.w3.org/2000/svg">
<path fill-rule="evenodd" clip-rule="evenodd" d="M3.5 1C3.63261 1 3.75979 1.05268 3.85355 1.14645C3.94732 1.24021 4 1.36739 4 1.5V14.5C4 14.6326 3.94732 14.7598 3.85355 14.8536C3.75979 14.9473 3.63261 15 3.5 15C3.36739 15 3.24021 14.9473 3.14645 14.8536C3.05268 14.7598 3 14.6326 3 14.5V1.5C3 1.36739 3.05268 1.24021 3.14645 1.14645C3.24021 1.05268 3.36739 1 3.5 1Z" fill="#FF6B69"/>
<path fill-rule="evenodd" clip-rule="evenodd" d="M3.762 2.558C4.735 1.909 5.348 1.5 6.5 1.5C7.153 1.5 7.639 1.825 7.995 2.062L8.027 2.084C8.418 2.344 8.673 2.5 9 2.5C9.168 2.5 9.356 2.458 9.587 2.374C9.78762 2.29785 9.98542 2.21446 10.18 2.124C10.238 2.097 10.297 2.071 10.36 2.044C10.93 1.789 11.638 1.5 12.5 1.5C12.6326 1.5 12.7598 1.55268 12.8536 1.64645C12.9473 1.74021 13 1.86739 13 2V8C13 8.13261 12.9473 8.25979 12.8536 8.35355C12.7598 8.44732 12.6326 8.5 12.5 8.5C11.862 8.5 11.32 8.71 10.766 8.957L10.607 9.027C10.387 9.127 10.154 9.232 9.929 9.314C9.6326 9.42989 9.31817 9.49285 9 9.5C8.347 9.5 7.861 9.175 7.505 8.938L7.473 8.916C7.082 8.656 6.827 8.5 6.5 8.5C5.667 8.5 5.282 8.746 4.277 9.416C4.20171 9.46611 4.11423 9.49485 4.02389 9.49917C3.93355 9.50349 3.84373 9.48323 3.764 9.44054C3.68427 9.39785 3.6176 9.33434 3.57111 9.25676C3.52462 9.17918 3.50005 9.09044 3.5 9V3C3.50004 2.91766 3.52042 2.8366 3.55932 2.76403C3.59823 2.69146 3.65445 2.62962 3.723 2.584L3.763 2.558H3.762Z" fill="#FF6B69"/>
</svg>
