<svg width="24" height="24" viewBox="0 0 24 24" fill="none" xmlns="http://www.w3.org/2000/svg">
    <path fill-rule="evenodd" clip-rule="evenodd" d="M21.6 12.2273C21.6 11.5182 21.5364 10.8364 21.4182 10.1819H12V14.0501H17.3818C17.15 15.3001 16.4455 16.3592 15.3864 17.0682V19.5773H18.6182C20.5091 17.8364 21.6 15.2728 21.6 12.2273Z" fill="#4285F4"/>
    <path fill-rule="evenodd" clip-rule="evenodd" d="M11.9979 21.9997C14.6979 21.9997 16.9615 21.1042 18.6161 19.5769L15.3843 17.0678C14.4888 17.6678 13.3433 18.0224 11.9979 18.0224C9.39334 18.0224 7.1888 16.2633 6.40243 13.8997H3.06152V16.4906C4.70698 19.7587 8.0888 21.9997 11.9979 21.9997Z" fill="#34A853"/>
    <path fill-rule="evenodd" clip-rule="evenodd" d="M6.40455 13.8999C6.20455 13.2999 6.09091 12.659 6.09091 11.9999C6.09091 11.3409 6.20455 10.6999 6.40455 10.0999V7.50903H3.06364C2.38636 8.85903 2 10.3863 2 11.9999C2 13.6136 2.38636 15.1409 3.06364 16.4909L6.40455 13.8999Z" fill="#FBBC05"/>
    <path fill-rule="evenodd" clip-rule="evenodd" d="M11.9979 5.97727C13.4661 5.97727 14.7843 6.48182 15.8206 7.47273L18.6888 4.60455C16.957 2.99091 14.6933 2 11.9979 2C8.0888 2 4.70698 4.24091 3.06152 7.50909L6.40243 10.1C7.1888 7.73636 9.39334 5.97727 11.9979 5.97727Z" fill="#EA4335"/>
</svg>
