<svg width="24" height="24" viewBox="0 0 24 24" fill="none" xmlns="http://www.w3.org/2000/svg">
<path d="M19.8571 2H4.14286C3.57454 2 3.02949 2.22576 2.62763 2.62763C2.22576 3.02949 2 3.57454 2 4.14286L2 19.8571C2 20.4255 2.22576 20.9705 2.62763 21.3724C3.02949 21.7742 3.57454 22 4.14286 22H10.2701V15.2004H7.45759V12H10.2701V9.56071C10.2701 6.78616 11.9219 5.25357 14.4518 5.25357C15.6634 5.25357 16.9304 5.46964 16.9304 5.46964V8.19286H15.5344C14.1589 8.19286 13.7299 9.04643 13.7299 9.92188V12H16.8004L16.3094 15.2004H13.7299V22H19.8571C20.4255 22 20.9705 21.7742 21.3724 21.3724C21.7742 20.9705 22 20.4255 22 19.8571V4.14286C22 3.57454 21.7742 3.02949 21.3724 2.62763C20.9705 2.22576 20.4255 2 19.8571 2Z" fill="white"/>
</svg>
