<svg width="24" height="24" viewBox="0 0 24 24" fill="none" xmlns="http://www.w3.org/2000/svg">
<path d="M11.9975 8.66525C10.1613 8.66525 8.66274 10.1638 8.66274 12C8.66274 13.8362 10.1613 15.3348 11.9975 15.3348C13.8337 15.3348 15.3323 13.8362 15.3323 12C15.3323 10.1638 13.8337 8.66525 11.9975 8.66525ZM21.9993 12C21.9993 10.6191 22.0118 9.25064 21.9342 7.87221C21.8567 6.27113 21.4914 4.85017 20.3206 3.67938C19.1473 2.50609 17.7289 2.14334 16.1278 2.06579C14.7469 1.98824 13.3784 2.00074 12 2.00074C10.6191 2.00074 9.25064 1.98824 7.87221 2.06579C6.27113 2.14334 4.85017 2.50859 3.67938 3.67938C2.50609 4.85267 2.14334 6.27113 2.06579 7.87221C1.98824 9.25314 2.00074 10.6216 2.00074 12C2.00074 13.3784 1.98824 14.7494 2.06579 16.1278C2.14334 17.7289 2.50859 19.1498 3.67938 20.3206C4.85267 21.4939 6.27113 21.8567 7.87221 21.9342C9.25314 22.0118 10.6216 21.9993 12 21.9993C13.3809 21.9993 14.7494 22.0118 16.1278 21.9342C17.7289 21.8567 19.1498 21.4914 20.3206 20.3206C21.4939 19.1473 21.8567 17.7289 21.9342 16.1278C22.0143 14.7494 21.9993 13.3809 21.9993 12ZM11.9975 17.131C9.15808 17.131 6.86653 14.8394 6.86653 12C6.86653 9.16058 9.15808 6.86903 11.9975 6.86903C14.8369 6.86903 17.1285 9.16058 17.1285 12C17.1285 14.8394 14.8369 17.131 11.9975 17.131ZM17.3386 7.8572C16.6757 7.8572 16.1403 7.32184 16.1403 6.65889C16.1403 5.99594 16.6757 5.46058 17.3386 5.46058C18.0016 5.46058 18.5369 5.99594 18.5369 6.65889C18.5371 6.81631 18.5063 6.97222 18.4461 7.1177C18.386 7.26317 18.2977 7.39535 18.1864 7.50666C18.0751 7.61798 17.9429 7.70624 17.7974 7.76639C17.6519 7.82654 17.496 7.8574 17.3386 7.8572Z" fill="white"/>
</svg>
