<svg width="24" height="24" viewBox="0 0 24 24" fill="none" xmlns="http://www.w3.org/2000/svg">
<path d="M7.54667 21.9996C9.38771 22.013 11.213 21.651 12.9168 20.9346C14.6205 20.2183 16.1688 19.1619 17.4719 17.8267C18.775 16.4915 19.8069 14.904 20.5079 13.1563C21.2089 11.4086 21.565 9.53538 21.5556 7.64532C21.5556 7.42631 21.5556 7.2073 21.5556 6.99742C22.5134 6.27797 23.3407 5.39152 24 4.37841C23.102 4.78733 22.1491 5.05497 21.1733 5.17233C22.1987 4.54048 22.9661 3.54837 23.3333 2.37994C22.3693 2.96821 21.3139 3.38185 20.2133 3.60275C19.4723 2.78909 18.4902 2.24947 17.4197 2.06774C16.3492 1.88601 15.2502 2.07234 14.2934 2.59778C13.3367 3.12322 12.5757 3.95836 12.1289 4.97343C11.682 5.9885 11.5742 7.12667 11.8222 8.2111C9.86333 8.11317 7.94663 7.59194 6.1974 6.68147C4.44817 5.771 2.9058 4.49179 1.67111 2.92747C1.04098 4.04056 0.847417 5.35824 1.12976 6.6126C1.41211 7.86697 2.14917 8.96387 3.19111 9.6803C2.40915 9.65601 1.64417 9.44012 0.96 9.05064V9.11452C0.96161 10.2807 1.35516 11.4105 2.0742 12.3133C2.79324 13.216 3.79371 13.8364 4.90667 14.0696C4.18167 14.2703 3.42162 14.2984 2.68444 14.1518C3.00051 15.1564 3.61395 16.0347 4.43929 16.6645C5.26462 17.2942 6.26076 17.644 7.28889 17.6651C5.54567 19.0722 3.39089 19.8342 1.17333 19.8278C0.781063 19.8308 0.389048 19.8064 0 19.7548C2.2536 21.231 4.87339 22.0103 7.54667 21.9996Z" fill="#111111"/>
</svg>
