<svg width="24" height="24" viewBox="0 0 24 24" fill="none" xmlns="http://www.w3.org/2000/svg">
<path d="M23.5019 6.23002C23.3646 5.7243 23.0979 5.26308 22.7281 4.89179C22.3582 4.52051 21.8981 4.25197 21.3929 4.11264C19.5108 3.6001 11.9991 3.6001 11.9991 3.6001C11.9991 3.6001 4.48749 3.6001 2.60538 4.09583C2.10048 4.24113 1.64137 4.5137 1.27208 4.8874C0.902786 5.26111 0.635691 5.72343 0.496404 6.23002C0.154519 8.13487 -0.0114253 10.0671 0.000668833 12.0024C-0.0119494 13.9377 0.153999 15.87 0.496404 17.7748C0.633729 18.2805 0.900434 18.7417 1.27024 19.113C1.64005 19.4843 2.10021 19.7528 2.60538 19.8921C4.5043 20.4047 11.9991 20.4047 11.9991 20.4047C11.9991 20.4047 19.5108 20.4047 21.3929 19.909C21.8988 19.7711 22.3598 19.5031 22.7299 19.1316C23.0999 18.7601 23.3661 18.2981 23.5019 17.7916C23.8448 15.8812 24.0108 13.9433 23.9976 12.0024C24.0222 10.0667 23.8561 8.13322 23.5019 6.23002ZM9.60449 15.5986V8.40621L15.8558 12.0024L9.60449 15.5986Z" fill="white"/>
</svg>
